<svg width="52" height="53" viewBox="0 0 52 53" fill="none" xmlns="http://www.w3.org/2000/svg">
<path d="M20.1996 25.273H14.6721V30.8004H20.1996V25.273Z" fill="white"/>
<path d="M25.7273 19.7455H20.1998L20.1996 25.273L25.7273 25.2729V19.7455Z" fill="white"/>
<path d="M31.2546 14.218H25.7271L25.7273 19.7455L31.2546 19.7455V14.218Z" fill="white"/>
<path d="M31.2546 41.8553H25.7271V47.3828H31.2546V41.8553Z" fill="white"/>
<path d="M31.2546 30.8004H25.7271V36.3278H31.2546V30.8004Z" fill="white"/>
<path d="M31.2546 36.3278H25.7271V41.8553H31.2546V36.3278Z" fill="white"/>
<path d="M31.2546 25.273L25.7273 25.2729L25.7271 30.8004H31.2546V25.273Z" fill="white"/>
<path d="M31.2546 19.7455L25.7273 19.7455V25.2729L31.2546 25.273V19.7455Z" fill="white"/>
<rect x="2.6624" y="3.43079" width="46.8201" height="46.8201" stroke="white" stroke-width="5"/>
</svg>
