<svg width="55" height="54" viewBox="0 0 55 54" fill="none" xmlns="http://www.w3.org/2000/svg">
<rect x="2.78073" y="2.5" width="49.3094" height="49" stroke="white" stroke-width="5"/>
<path d="M37.8795 29.9327H32.9136V34.9575H37.8795V29.9327Z" fill="white"/>
<path d="M37.8795 44.821H32.9136V49.8459H37.8795V44.821Z" fill="white"/>
<path d="M37.8795 34.9575H32.9136V39.9823H37.8795V34.9575Z" fill="white"/>
<path d="M37.8795 20.0692H32.9136V25.094H37.8795V20.0692Z" fill="white"/>
<path d="M37.8795 25.094H32.9136V30.1188H37.8795V25.094Z" fill="white"/>
<path d="M37.8795 15.2305H32.9136V20.2553H37.8795V15.2305Z" fill="white"/>
<path d="M37.8795 39.7962H32.9136V44.821H37.8795V39.7962Z" fill="white"/>
<path d="M28.1317 29.9327H23.1658V34.9575H28.1317V29.9327Z" fill="white"/>
<path d="M23.3497 29.9327H18.3838V34.9575H23.3497V29.9327Z" fill="white"/>
<path d="M33.0975 29.9327H28.1317V34.9575H33.0975V29.9327Z" fill="white"/>
<path d="M23.3497 25.094H18.3838V30.1188H23.3497V25.094Z" fill="white"/>
<path d="M23.3497 15.2305H18.3838V20.2553H23.3497V15.2305Z" fill="white"/>
<path d="M23.3497 20.0692H18.3838V25.094H23.3497V20.0692Z" fill="white"/>
</svg>
