<svg width="618" height="153" viewBox="0 0 618 153" fill="none" xmlns="http://www.w3.org/2000/svg">
<path d="M334.034 61.3086H323.95V71.3932H334.034V61.3086Z" fill="#0000FE"/>
<path d="M405.085 81.4776H395V91.5623H405.085V81.4776Z" fill="#0000FE"/>
<path d="M405.085 61.3086H395V71.3932H405.085V61.3086Z" fill="#0000FE"/>
<path d="M394.542 61.3086H384.458V71.3932H394.542V61.3086Z" fill="#0000FE"/>
<path d="M374.373 61.3086H364.288V71.3932H374.373V61.3086Z" fill="#0000FE"/>
<path d="M364.288 61.3086H354.203V71.3932H364.288V61.3086Z" fill="#0000FE"/>
<path d="M354.203 61.3086H344.119V71.3932H354.203V61.3086Z" fill="#0000FE"/>
<path d="M344.119 61.3086H334.034V71.3932H344.119V61.3086Z" fill="#0000FE"/>
<path d="M465.593 91.5623H455.508V101.647H465.593V91.5623Z" fill="#0000FE"/>
<path d="M455.508 91.5623H445.423V101.647H455.508V91.5623Z" fill="#0000FE"/>
<path d="M445.423 81.4776H435.339V91.5623L445.423 91.5623L445.423 81.4776Z" fill="#0000FE"/>
<path d="M445.423 91.5623L435.339 91.5623V101.647H445.423V91.5623Z" fill="#0000FE"/>
<path d="M435.338 71.3931H425.254V81.4777L435.339 81.4776L435.338 71.3931Z" fill="#0000FE"/>
<path d="M435.339 81.4776L425.254 81.4777V91.5623H435.339V81.4776Z" fill="#0000FE"/>
<path d="M435.339 91.5623H425.254V101.647H435.339V91.5623Z" fill="#0000FE"/>
<path d="M435.338 61.3086H425.254V71.3931H435.338V61.3086Z" fill="#0000FE"/>
<path d="M425.254 61.3086H415.17V71.3932L425.254 71.3931V61.3086Z" fill="#0000FE"/>
<path d="M425.254 91.5623L415.17 91.5623V101.647H425.254V91.5623Z" fill="#0000FE"/>
<path d="M425.254 81.4777L415.17 81.4776V91.5623L425.254 91.5623V81.4777Z" fill="#0000FE"/>
<path d="M425.254 71.3931L415.17 71.3932V81.4776L425.254 81.4777V71.3931Z" fill="#0000FE"/>
<path d="M415.17 81.4776H405.085V91.5623L415.17 91.5623V81.4776Z" fill="#0000FE"/>
<path d="M415.17 71.3932H405.085V81.4776H415.17V71.3932Z" fill="#0000FE"/>
<path d="M415.17 61.3086H405.085V71.3932H415.17V61.3086Z" fill="#0000FE"/>
<path d="M405.085 132.359H395V142.444H405.085V132.359Z" fill="#0000FE"/>
<path d="M394.542 142.444H384.458V152.528H394.542V142.444Z" fill="#0000FE"/>
<path d="M394.542 132.359H384.458V142.444H394.542V132.359Z" fill="#0000FE"/>
<path d="M384.458 142.444H374.373V152.528H384.458V142.444Z" fill="#0000FE"/>
<path d="M384.458 132.359H374.373V142.444H384.458V132.359Z" fill="#0000FE"/>
<path d="M374.373 132.359H364.288V142.444L374.373 142.444V132.359Z" fill="#0000FE"/>
<path d="M617.32 101.647H607.235V111.732H617.32V101.647Z" fill="#0000FE"/>
<path d="M607.235 101.647H597.151V111.732H607.235V101.647Z" fill="#0000FE"/>
<path d="M597.151 101.647H587.066V111.732H597.151V101.647Z" fill="#0000FE"/>
<path d="M597.151 91.5623H587.066V101.647H597.151L597.151 91.5623Z" fill="#0000FE"/>
<path d="M587.066 101.647H576.982V111.732H587.066V101.647Z" fill="#0000FE"/>
<path d="M576.981 91.5623H566.897V101.647L576.982 101.647L576.981 91.5623Z" fill="#0000FE"/>
<path d="M566.897 101.647L556.812 101.647V111.732H566.897L566.897 101.647Z" fill="#0000FE"/>
<path d="M566.897 122.275H556.812V132.359H566.897V122.275Z" fill="#0000FE"/>
<path d="M566.897 112.19H556.812V122.275H566.897V112.19Z" fill="#0000FE"/>
<path d="M556.812 91.5623H546.727V101.647L556.812 101.647L556.812 91.5623Z" fill="#0000FE"/>
<path d="M556.812 122.275H546.727V132.359H556.812V122.275Z" fill="#0000FE"/>
<path d="M556.812 101.647L546.727 101.647V111.732H556.812V101.647Z" fill="#0000FE"/>
<path d="M556.812 112.19H546.727V122.275H556.812V112.19Z" fill="#0000FE"/>
<path d="M475.677 112.19H465.593V122.274H475.677V112.19Z" fill="#0000FE"/>
<path d="M475.677 122.274H465.593V132.359H475.677V122.274Z" fill="#0000FE"/>
<path d="M465.593 132.359L455.508 132.359V142.444H465.593L465.593 132.359Z" fill="#0000FE"/>
<path d="M465.593 122.274L455.508 122.275V132.359L465.593 132.359V122.274Z" fill="#0000FE"/>
<path d="M455.508 132.359H445.423V142.444H455.508V132.359Z" fill="#0000FE"/>
<path d="M455.508 122.275H445.423V132.359H455.508V122.275Z" fill="#0000FE"/>
<path d="M445.423 101.647H435.339V111.732H445.423L445.423 101.647Z" fill="#0000FE"/>
<path d="M445.423 122.275H435.339V132.359L445.423 132.359V122.275Z" fill="#0000FE"/>
<path d="M445.423 132.359L435.339 132.359V142.444H445.423V132.359Z" fill="#0000FE"/>
<path d="M435.339 132.359L425.254 132.359V142.444H435.339V132.359Z" fill="#0000FE"/>
<path d="M425.254 142.444L415.17 142.444V152.528H425.254L425.254 142.444Z" fill="#0000FE"/>
<path d="M425.254 132.359H415.17V142.444L425.254 142.444V132.359Z" fill="#0000FE"/>
<path d="M415.17 132.359H405.085V142.444L415.17 142.444V132.359Z" fill="#0000FE"/>
<path d="M415.17 142.444L405.085 142.444L405.085 152.528H415.17V142.444Z" fill="#0000FE"/>
<path d="M546.269 91.5623H536.185V101.647H546.269V91.5623Z" fill="#0000FE"/>
<path d="M546.269 122.275H536.185V132.359H546.269V122.275Z" fill="#0000FE"/>
<path d="M546.269 112.19H536.185V122.275H546.269V112.19Z" fill="#0000FE"/>
<path d="M546.269 101.647H536.185V111.732H546.269V101.647Z" fill="#0000FE"/>
<path d="M536.185 112.19H526.1V122.274L536.185 122.275V112.19Z" fill="#0000FE"/>
<path d="M536.185 101.647L526.1 101.647V111.732H536.185V101.647Z" fill="#0000FE"/>
<path d="M536.185 91.5623H526.1V101.647L536.185 101.647V91.5623Z" fill="#0000FE"/>
<path d="M526.1 112.19H516.016V122.274H526.1V112.19Z" fill="#0000FE"/>
<path d="M526.1 101.647H516.016V111.732H526.1V101.647Z" fill="#0000FE"/>
<path d="M526.1 91.5623H516.016V101.647H526.1V91.5623Z" fill="#0000FE"/>
<path d="M516.016 112.19H505.931V122.274H516.016V112.19Z" fill="#0000FE"/>
<path d="M516.016 91.5623H505.931V101.647L516.016 101.647V91.5623Z" fill="#0000FE"/>
<path d="M516.016 101.647L505.931 101.647V111.732H516.016V101.647Z" fill="#0000FE"/>
<path d="M505.931 81.4776H495.846V91.5623L505.931 91.5623L505.931 81.4776Z" fill="#0000FE"/>
<path d="M505.931 91.5623L495.846 91.5623V101.647H505.931V91.5623Z" fill="#0000FE"/>
<path d="M505.931 112.19H495.846V122.274H505.931V112.19Z" fill="#0000FE"/>
<path d="M505.931 101.647H495.846V111.732H505.931V101.647Z" fill="#0000FE"/>
<path d="M495.846 81.4776H485.762V91.5623H495.846V81.4776Z" fill="#0000FE"/>
<path d="M495.846 101.647L485.762 101.647V111.732H495.846V101.647Z" fill="#0000FE"/>
<path d="M495.846 91.5623H485.762V101.647L495.846 101.647V91.5623Z" fill="#0000FE"/>
<path d="M495.846 122.274L485.762 122.275V132.359H495.846L495.846 122.274Z" fill="#0000FE"/>
<path d="M495.846 112.19H485.762V122.275L495.846 122.274V112.19Z" fill="#0000FE"/>
<path d="M485.762 112.19H475.677V122.274L485.762 122.275V112.19Z" fill="#0000FE"/>
<path d="M485.762 122.275L475.677 122.274V132.359H485.762V122.275Z" fill="#0000FE"/>
<path d="M334.034 122.275H323.95V132.359H334.034V122.275Z" fill="#0000FE"/>
<path d="M334.034 31.0546H323.95V41.1393H334.034V31.0546Z" fill="#0000FE"/>
<path d="M334.034 132.359H323.95V142.444H334.034V132.359Z" fill="#0000FE"/>
<path d="M334.034 101.647H323.95V111.732H334.034V101.647Z" fill="#0000FE"/>
<path d="M334.034 20.9701H323.95V31.0546H334.034V20.9701Z" fill="#0000FE"/>
<path d="M334.034 10.8856H323.95V20.9701H334.034V10.8856Z" fill="#0000FE"/>
<path d="M334.034 0.800903H323.95V10.8856H334.034V0.800903Z" fill="#0000FE"/>
<path d="M334.034 112.19H323.95V122.275H334.034V112.19Z" fill="#0000FE"/>
<path d="M323.95 0.800903H313.865V10.8855L323.95 10.8856V0.800903Z" fill="#0000FE"/>
<path d="M323.95 132.359L313.865 132.359V142.444H323.95V132.359Z" fill="#0000FE"/>
<path d="M323.95 31.0546H313.865V41.1393H323.95V31.0546Z" fill="#0000FE"/>
<path d="M323.95 101.647H313.865V111.732H323.95V101.647Z" fill="#0000FE"/>
<path d="M323.95 20.9701H313.865V31.0546H323.95V20.9701Z" fill="#0000FE"/>
<path d="M323.95 10.8856L313.865 10.8855V20.9701H323.95V10.8856Z" fill="#0000FE"/>
<path d="M313.865 132.359H303.78V142.444H313.865V132.359Z" fill="#0000FE"/>
<path d="M313.865 101.647H303.78V111.732H313.865V101.647Z" fill="#0000FE"/>
<path d="M313.865 0.800903H303.78V10.8855H313.865V0.800903Z" fill="#0000FE"/>
<path d="M313.865 31.0546H303.78V41.1393H313.865V31.0546Z" fill="#0000FE"/>
<path d="M313.865 20.9701H303.78V31.0546H313.865V20.9701Z" fill="#0000FE"/>
<path d="M313.865 10.8855H303.78V20.9701H313.865V10.8855Z" fill="#0000FE"/>
<path d="M303.78 112.19H293.696V122.274H303.78V112.19Z" fill="#0000FE"/>
<path d="M303.78 20.9701H293.696V31.0547L303.78 31.0546V20.9701Z" fill="#0000FE"/>
<path d="M303.78 41.1393H293.696V51.2239H303.78L303.78 41.1393Z" fill="#0000FE"/>
<path d="M303.78 31.0546L293.696 31.0547V41.1393H303.78V31.0546Z" fill="#0000FE"/>
<path d="M303.78 10.8855L293.696 10.8856V20.9701H303.78V10.8855Z" fill="#0000FE"/>
<path d="M303.78 101.647H293.696V111.732H303.78V101.647Z" fill="#0000FE"/>
<path d="M303.78 0.800903H293.696V10.8856L303.78 10.8855V0.800903Z" fill="#0000FE"/>
<path d="M293.696 101.647H283.612V111.732H293.696V101.647Z" fill="#0000FE"/>
<path d="M293.696 41.1393H283.612V51.2239H293.696V41.1393Z" fill="#0000FE"/>
<path d="M293.696 112.19H283.612V122.274H293.696V112.19Z" fill="#0000FE"/>
<path d="M293.696 31.0547L283.612 31.0546V41.1393H293.696V31.0547Z" fill="#0000FE"/>
<path d="M293.696 20.9701H283.612V31.0546L293.696 31.0547V20.9701Z" fill="#0000FE"/>
<path d="M293.696 132.359H283.612V142.444H293.696V132.359Z" fill="#0000FE"/>
<path d="M283.612 132.359H273.527V142.444H283.612V132.359Z" fill="#0000FE"/>
<path d="M283.612 41.1393H273.527V51.2239H283.612V41.1393Z" fill="#0000FE"/>
<path d="M283.612 20.9701H273.527V31.0547L283.612 31.0546V20.9701Z" fill="#0000FE"/>
<path d="M283.612 31.0546L273.527 31.0547V41.1393H283.612V31.0546Z" fill="#0000FE"/>
<path d="M283.612 101.647H273.527V111.732H283.612V101.647Z" fill="#0000FE"/>
<path d="M283.612 112.19H273.527V122.274H283.612V112.19Z" fill="#0000FE"/>
<path d="M273.527 101.647H263.442V111.732H273.527V101.647Z" fill="#0000FE"/>
<path d="M273.527 112.19H263.442V122.274H273.527V112.19Z" fill="#0000FE"/>
<path d="M273.527 132.359H263.442V142.444H273.527V132.359Z" fill="#0000FE"/>
<path d="M273.527 122.274H263.442V132.359H273.527V122.274Z" fill="#0000FE"/>
<path d="M273.527 31.0547L263.442 31.0546V41.1393H273.527V31.0547Z" fill="#0000FE"/>
<path d="M273.527 61.3086H263.442V71.3932H273.527V61.3086Z" fill="#0000FE"/>
<path d="M273.527 20.9701H263.442V31.0546L273.527 31.0547V20.9701Z" fill="#0000FE"/>
<path d="M273.527 41.1393H263.442V51.2239H273.527V41.1393Z" fill="#0000FE"/>
<path d="M121.799 122.275H111.715V132.359H121.799V122.275Z" fill="#0000FE"/>
<path d="M121.799 112.19H111.715V122.275H121.799V112.19Z" fill="#0000FE"/>
<path d="M121.799 101.647H111.715V111.732H121.799V101.647Z" fill="#0000FE"/>
<path d="M121.799 71.3931H111.715V81.4777H121.799V71.3931Z" fill="#0000FE"/>
<path d="M121.799 81.4777H111.715V91.5623H121.799V81.4777Z" fill="#0000FE"/>
<path d="M121.799 91.5623H111.715V101.647H121.799V91.5623Z" fill="#0000FE"/>
<path d="M111.715 122.275H101.63V132.359H111.715V122.275Z" fill="#0000FE"/>
<path d="M111.715 91.5623L101.63 91.5623V101.647L111.715 101.647V91.5623Z" fill="#0000FE"/>
<path d="M111.715 101.647L101.63 101.647V111.732H111.715V101.647Z" fill="#0000FE"/>
<path d="M111.715 81.4777L101.63 81.4776V91.5623L111.715 91.5623V81.4777Z" fill="#0000FE"/>
<path d="M101.63 122.275H91.5455V132.359H101.63V122.275Z" fill="#0000FE"/>
<path d="M101.63 112.19H91.5455V122.275H101.63L101.63 112.19Z" fill="#0000FE"/>
<path d="M101.63 101.647L91.5455 101.647V111.732H101.63V101.647Z" fill="#0000FE"/>
<path d="M101.63 81.4776H91.5455V91.5623L101.63 91.5623V81.4776Z" fill="#0000FE"/>
<path d="M91.5455 101.647H81.4606V111.732H91.5455V101.647Z" fill="#0000FE"/>
<path d="M81.0025 101.647H70.918V111.732H81.0025V101.647Z" fill="#0000FE"/>
<path d="M70.918 101.647H60.833V111.732H70.918V101.647Z" fill="#0000FE"/>
<path d="M70.9176 81.4776H60.833V91.5623H70.9176V81.4776Z" fill="#0000FE"/>
<path d="M60.833 101.647H50.7486V111.732H60.833V101.647Z" fill="#0000FE"/>
<path d="M60.833 81.4776H50.7486V91.5623H60.833V81.4776Z" fill="#0000FE"/>
<path d="M60.833 91.5623H50.7486V101.647H60.833V91.5623Z" fill="#0000FE"/>
<path d="M50.7486 101.647H40.6643V111.732H50.7486V101.647Z" fill="#0000FE"/>
<path d="M50.7486 91.5623L40.6643 91.5623V101.647H50.7486V91.5623Z" fill="#0000FE"/>
<path d="M40.664 81.4776H30.5793V91.5623L40.6643 91.5623L40.664 81.4776Z" fill="#0000FE"/>
<path d="M40.6643 101.647H30.5793V111.732H40.6643V101.647Z" fill="#0000FE"/>
<path d="M30.5793 101.647H20.4949V111.732H30.5793V101.647Z" fill="#0000FE"/>
<path d="M30.5793 81.4776H20.4949V91.5623H30.5793V81.4776Z" fill="#0000FE"/>
<path d="M30.5793 91.5623H20.4949V101.647H30.5793V91.5623Z" fill="#0000FE"/>
<path d="M20.4949 91.5623L10.41 91.5623V101.647L20.4949 101.647V91.5623Z" fill="#0000FE"/>
<path d="M20.4949 101.647L10.41 101.647V111.732H20.4949V101.647Z" fill="#0000FE"/>
<path d="M20.4949 81.4776H10.41V91.5623L20.4949 91.5623V81.4776Z" fill="#0000FE"/>
<path d="M10.41 81.4776H0.325623V91.5623L10.41 91.5623V81.4776Z" fill="#0000FE"/>
<path d="M10.41 91.5623L0.325623 91.5623V101.647H10.41V91.5623Z" fill="#0000FE"/>
<path d="M405.085 112.19H395V122.274H405.085V112.19Z" fill="#0000FE"/>
<path d="M405.085 101.647H395V111.732H405.085V101.647Z" fill="#0000FE"/>
<path d="M394.542 101.647H384.458V111.732H394.542V101.647Z" fill="#0000FE"/>
<path d="M384.458 101.647H374.373V111.732H384.458V101.647Z" fill="#0000FE"/>
<path d="M374.373 142.444L364.288 142.444V152.528H374.373V142.444Z" fill="#0000FE"/>
<path d="M364.288 142.444L354.203 142.444V152.528H364.288V142.444Z" fill="#0000FE"/>
<path d="M364.288 101.647H354.203V111.732H364.288V101.647Z" fill="#0000FE"/>
<path d="M354.203 101.647H344.119V111.732H354.203V101.647Z" fill="#0000FE"/>
<path d="M354.203 20.9701H344.119V31.0547H354.203V20.9701Z" fill="#0000FE"/>
<path d="M354.203 132.359H344.119V142.444L354.203 142.444L354.203 132.359Z" fill="#0000FE"/>
<path d="M344.119 112.19H334.034V122.275L344.119 122.274V112.19Z" fill="#0000FE"/>
<path d="M344.119 20.9701H334.034V31.0546L344.119 31.0547V20.9701Z" fill="#0000FE"/>
<path d="M344.119 101.647H334.034V111.732H344.119V101.647Z" fill="#0000FE"/>
<path d="M435.339 122.275H425.254V132.359L435.339 132.359V122.275Z" fill="#0000FE"/>
<path d="M435.338 112.19H425.254V122.275H435.339L435.338 112.19Z" fill="#0000FE"/>
<path d="M425.254 122.275H415.17V132.359H425.254V122.275Z" fill="#0000FE"/>
<path d="M415.17 112.19H405.085V122.274L415.17 122.275L415.17 112.19Z" fill="#0000FE"/>
<path d="M263.442 112.19H253.357V122.274H263.442V112.19Z" fill="#0000FE"/>
<path d="M263.442 122.274H253.357V132.359L263.442 132.359V122.274Z" fill="#0000FE"/>
<path d="M263.442 101.647H253.357V111.732H263.442V101.647Z" fill="#0000FE"/>
<path d="M263.442 61.3086H253.357V71.3932H263.442V61.3086Z" fill="#0000FE"/>
<path d="M263.442 31.0546H253.357V41.1393H263.442V31.0546Z" fill="#0000FE"/>
<path d="M263.442 71.3932H253.357V81.4777H263.442L263.442 71.3932Z" fill="#0000FE"/>
<path d="M263.442 41.1393H253.357V51.2239H263.442V41.1393Z" fill="#0000FE"/>
<path d="M263.442 51.2239H253.357V61.3086H263.442V51.2239Z" fill="#0000FE"/>
<path d="M253.357 61.3086H243.273V71.3932H253.357V61.3086Z" fill="#0000FE"/>
<path d="M253.357 71.3932H243.273V81.4777H253.357V71.3932Z" fill="#0000FE"/>
<path d="M253.357 51.2239L243.273 51.2239V61.3086H253.357V51.2239Z" fill="#0000FE"/>
<path d="M253.357 41.1393H243.273V51.2239L253.357 51.2239V41.1393Z" fill="#0000FE"/>
<path d="M253.357 112.19H243.273V122.274H253.357V112.19Z" fill="#0000FE"/>
<path d="M253.357 101.647H243.273V111.732H253.357V101.647Z" fill="#0000FE"/>
<path d="M243.273 71.3932L233.188 71.3931V81.4777H243.273V71.3932Z" fill="#0000FE"/>
<path d="M243.273 51.2239H233.188V61.3085L243.273 61.3086V51.2239Z" fill="#0000FE"/>
<path d="M243.273 112.19H233.188V122.274H243.273V112.19Z" fill="#0000FE"/>
<path d="M243.273 31.0546H233.188V41.1393H243.273L243.273 31.0546Z" fill="#0000FE"/>
<path d="M243.273 41.1393H233.188V51.2239H243.273V41.1393Z" fill="#0000FE"/>
<path d="M243.273 61.3086L233.188 61.3085V71.3931L243.273 71.3932V61.3086Z" fill="#0000FE"/>
<path d="M243.273 101.647H233.188V111.732H243.273V101.647Z" fill="#0000FE"/>
<path d="M232.73 122.275H222.645V132.359H232.73V122.275Z" fill="#0000FE"/>
<path d="M232.73 112.19H222.645V122.275H232.73V112.19Z" fill="#0000FE"/>
<path d="M232.73 51.2239H222.645V61.3085H232.73V51.2239Z" fill="#0000FE"/>
<path d="M232.73 71.3931H222.645V81.4777H232.73V71.3931Z" fill="#0000FE"/>
<path d="M232.73 91.5623H222.645V101.647H232.73V91.5623Z" fill="#0000FE"/>
<path d="M232.73 61.3085H222.645V71.3931H232.73V61.3085Z" fill="#0000FE"/>
<path d="M232.73 101.647H222.645V111.732H232.73V101.647Z" fill="#0000FE"/>
<path d="M232.73 41.1393H222.645V51.2239H232.73V41.1393Z" fill="#0000FE"/>
<path d="M232.73 31.0546H222.645V41.1393H232.73V31.0546Z" fill="#0000FE"/>
<path d="M222.645 51.2239H212.561V61.3085H222.645V51.2239Z" fill="#0000FE"/>
<path d="M222.645 122.275H212.561V132.359H222.645V122.275Z" fill="#0000FE"/>
<path d="M222.645 41.1393H212.561V51.2239H222.645V41.1393Z" fill="#0000FE"/>
<path d="M222.645 31.0546H212.561V41.1393H222.645V31.0546Z" fill="#0000FE"/>
<path d="M222.645 112.19H212.561V122.275H222.645V112.19Z" fill="#0000FE"/>
<path d="M222.645 61.3085H212.561V71.3932L222.645 71.3931V61.3085Z" fill="#0000FE"/>
<path d="M222.645 91.5623H212.561V101.647H222.645V91.5623Z" fill="#0000FE"/>
<path d="M222.645 71.3931L212.561 71.3932V81.4777H222.645V71.3931Z" fill="#0000FE"/>
<path d="M212.561 41.1393H202.476V51.2239L212.561 51.2239V41.1393Z" fill="#0000FE"/>
<path d="M212.561 61.3085L202.476 61.3086V71.3932H212.561V61.3085Z" fill="#0000FE"/>
<path d="M212.561 132.359L202.476 132.359V142.444H212.561L212.561 132.359Z" fill="#0000FE"/>
<path d="M212.561 91.5623H202.476V101.647H212.561V91.5623Z" fill="#0000FE"/>
<path d="M212.561 81.4777L202.476 81.4776V91.5623H212.561V81.4777Z" fill="#0000FE"/>
<path d="M212.561 31.0546H202.476V41.1393H212.561V31.0546Z" fill="#0000FE"/>
<path d="M212.561 122.275H202.476V132.359L212.561 132.359V122.275Z" fill="#0000FE"/>
<path d="M212.561 112.19H202.476V122.275H212.561V112.19Z" fill="#0000FE"/>
<path d="M202.476 112.19H192.392V122.274L202.476 122.275V112.19Z" fill="#0000FE"/>
<path d="M202.476 122.275L192.392 122.274V132.359L202.476 132.359V122.275Z" fill="#0000FE"/>
<path d="M202.476 61.3086H192.392V71.3932H202.476V61.3086Z" fill="#0000FE"/>
<path d="M202.476 81.4776H192.392V91.5623L202.476 91.5623V81.4776Z" fill="#0000FE"/>
<path d="M202.476 71.3932H192.392V81.4776H202.476V71.3932Z" fill="#0000FE"/>
<path d="M192.392 61.3086H182.307V71.3932H192.392V61.3086Z" fill="#0000FE"/>
<path d="M192.392 81.4776H182.307V91.5623H192.392V81.4776Z" fill="#0000FE"/>
<path d="M192.392 91.5623H182.307V101.647H192.391L192.392 91.5623Z" fill="#0000FE"/>
<path d="M192.392 122.274L182.307 122.275V132.359H192.392V122.274Z" fill="#0000FE"/>
<path d="M192.392 71.3932H182.307V81.4776H192.392V71.3932Z" fill="#0000FE"/>
<path d="M192.392 112.19H182.307V122.275L192.392 122.274V112.19Z" fill="#0000FE"/>
<path d="M182.307 122.275H172.222V132.359H182.307V122.275Z" fill="#0000FE"/>
<path d="M182.307 112.19H172.222V122.275H182.307V112.19Z" fill="#0000FE"/>
<path d="M182.307 61.3086H172.222V71.3932H182.307V61.3086Z" fill="#0000FE"/>
<path d="M182.307 132.359H172.222V142.444H182.307L182.307 132.359Z" fill="#0000FE"/>
<path d="M172.222 61.3086H162.138V71.3932H172.222V61.3086Z" fill="#0000FE"/>
<path d="M172.222 112.19H162.138V122.274L172.222 122.275V112.19Z" fill="#0000FE"/>
<path d="M172.222 122.275L162.138 122.274V132.359H172.222V122.275Z" fill="#0000FE"/>
<path d="M172.222 132.359H162.138V142.444H172.222V132.359Z" fill="#0000FE"/>
<path d="M172.222 101.647H162.138V111.732H172.222V101.647Z" fill="#0000FE"/>
<path d="M162.138 81.4776H152.053V91.5623H162.138V81.4776Z" fill="#0000FE"/>
<path d="M162.138 91.5623H152.053V101.647L162.138 101.647L162.138 91.5623Z" fill="#0000FE"/>
<path d="M162.138 71.3932L152.053 71.3931V81.4776H162.138L162.138 71.3932Z" fill="#0000FE"/>
<path d="M162.138 61.3086H152.053V71.3931L162.138 71.3932V61.3086Z" fill="#0000FE"/>
<path d="M162.138 101.647L152.053 101.647V111.732H162.138V101.647Z" fill="#0000FE"/>
<path d="M162.138 51.2239H152.053V61.3086H162.138L162.138 51.2239Z" fill="#0000FE"/>
<path d="M162.138 112.19H152.053V122.274H162.138V112.19Z" fill="#0000FE"/>
<path d="M152.053 71.3931H141.969V81.4777L152.053 81.4776V71.3931Z" fill="#0000FE"/>
<path d="M152.053 81.4776L141.969 81.4777V91.5623H152.053V81.4776Z" fill="#0000FE"/>
<path d="M152.053 101.647L141.969 101.647V111.732H152.053V101.647Z" fill="#0000FE"/>
<path d="M152.053 51.2239H141.969V61.3085L152.053 61.3086V51.2239Z" fill="#0000FE"/>
<path d="M152.053 112.19H141.969V122.274H152.053V112.19Z" fill="#0000FE"/>
<path d="M152.053 91.5623H141.969V101.647L152.053 101.647V91.5623Z" fill="#0000FE"/>
<path d="M141.969 101.647H131.884V111.732H141.969V101.647Z" fill="#0000FE"/>
<path d="M141.969 81.4777L131.884 81.4776V91.5623H141.969V81.4777Z" fill="#0000FE"/>
<path d="M141.969 112.19H131.884V122.274H141.969V112.19Z" fill="#0000FE"/>
<path d="M141.969 71.3931H131.884V81.4776L141.969 81.4777V71.3931Z" fill="#0000FE"/>
<path d="M141.969 51.2239H131.884V61.3085H141.969V51.2239Z" fill="#0000FE"/>
<path d="M141.969 61.3085H131.884V71.3931H141.969V61.3085Z" fill="#0000FE"/>
<path d="M131.884 81.4776L121.799 81.4777V91.5623H131.884V81.4776Z" fill="#0000FE"/>
<path d="M131.884 112.19H121.799V122.275L131.884 122.274V112.19Z" fill="#0000FE"/>
<path d="M131.884 71.3931H121.799V81.4777L131.884 81.4776V71.3931Z" fill="#0000FE"/>
<path d="M131.884 61.3085L121.799 61.3086L121.799 71.3931H131.884V61.3085Z" fill="#0000FE"/>
<path d="M131.884 101.647H121.799V111.732H131.884V101.647Z" fill="#0000FE"/>
<path d="M131.884 91.5623H121.799V101.647H131.884V91.5623Z" fill="#0000FE"/>
</svg>
