<svg width="553" height="261" viewBox="0 0 553 261" fill="none" xmlns="http://www.w3.org/2000/svg">
<path d="M0.0424805 72.4082H14.5767V86.9426H0.0424805V72.4082Z" fill="#1415D2"/>
<path d="M14.2218 72.4082H28.756V86.9426H14.2218V72.4082Z" fill="#1415D2"/>
<path d="M28.756 72.4082H43.2906V86.9426H28.756V72.4082Z" fill="#1415D2"/>
<path d="M43.2906 72.4082H57.8252V86.9426H43.2906V72.4082Z" fill="#1415D2"/>
<path d="M43.2909 57.8739H57.8252V72.4082H43.2906L43.2909 57.8739Z" fill="#1415D2"/>
<path d="M57.8252 72.4082H72.3592V86.9426H57.8252V72.4082Z" fill="#1415D2"/>
<path d="M57.8252 57.8739H72.3592V72.4082H57.8252V57.8739Z" fill="#1415D2"/>
<path d="M72.3592 72.4082H86.8937V86.9426H72.3592V72.4082Z" fill="#1415D2"/>
<path d="M72.3594 43.3395H86.8937V57.8739H72.3592L72.3594 43.3395Z" fill="#1415D2"/>
<path d="M72.3592 57.8739H86.8937V72.4082H72.3592V57.8739Z" fill="#1415D2"/>
<path d="M86.8935 29.1597H101.428V43.694H86.8935V29.1597Z" fill="#1415D2"/>
<path d="M86.8937 72.4082H101.428V86.9426H86.8937V72.4082Z" fill="#1415D2"/>
<path d="M86.8937 57.8739H101.428V72.4082H86.8937V57.8739Z" fill="#1415D2"/>
<path d="M86.8937 43.3395H101.428V57.8739H86.8937V43.3395Z" fill="#1415D2"/>
<path d="M101.428 72.4082H115.962V86.9426H101.428V72.4082Z" fill="#1415D2"/>
<path d="M101.428 29.1597H115.962V43.694H101.428V29.1597Z" fill="#1415D2"/>
<path d="M101.428 57.8739H115.962V72.4082H101.428V57.8739Z" fill="#1415D2"/>
<path d="M115.963 14.6253H130.497V29.1597H115.962L115.963 14.6253Z" fill="#1415D2"/>
<path d="M115.962 72.4082H130.497V86.9426H115.962V72.4082Z" fill="#1415D2"/>
<path d="M115.962 57.8739H130.497V72.4082H115.962V57.8739Z" fill="#1415D2"/>
<path d="M115.963 43.3395H130.497V57.8739H115.962L115.963 43.3395Z" fill="#1415D2"/>
<path d="M115.962 29.1597H130.497V43.694H115.962V29.1597Z" fill="#1415D2"/>
<path d="M115.963 0.0910645H130.497V14.6253H115.963V0.0910645Z" fill="#1415D2"/>
<path d="M130.142 29.1597H144.677V43.694H130.142V29.1597Z" fill="#1415D2"/>
<path d="M130.142 14.6253H144.677V29.1597H130.142V14.6253Z" fill="#1415D2"/>
<path d="M130.142 0.0910645H144.677V14.6253H130.142V0.0910645Z" fill="#1415D2"/>
<path d="M130.142 57.8739H144.677V72.4082H130.142V57.8739Z" fill="#1415D2"/>
<path d="M130.142 43.3395H144.677V57.8739H130.142V43.3395Z" fill="#1415D2"/>
<path d="M144.677 43.3395H159.211V57.8739H144.677V43.3395Z" fill="#1415D2"/>
<path d="M144.677 57.8739H159.211V72.4082H144.677V57.8739Z" fill="#1415D2"/>
<path d="M144.677 14.6253H159.211V29.1597H144.677V14.6253Z" fill="#1415D2"/>
<path d="M144.677 29.1597H159.211V43.694H144.677V29.1597Z" fill="#1415D2"/>
<path d="M144.677 72.4082H159.211V86.9426H144.676L144.677 72.4082Z" fill="#1415D2"/>
<path d="M159.211 57.8739H173.745V72.4082H159.211V57.8739Z" fill="#1415D2"/>
<path d="M159.211 43.3395H173.745V57.8739H159.211V43.3395Z" fill="#1415D2"/>
<path d="M159.211 29.1597H173.745V43.694H159.211V29.1597Z" fill="#1415D2"/>
<path d="M159.211 14.6253H173.745V29.1597H159.211V14.6253Z" fill="#1415D2"/>
<path d="M173.745 72.4082H188.279V86.9426H173.745L173.745 72.4082Z" fill="#1415D2"/>
<path d="M173.745 29.1597H188.279V43.694H173.745V29.1597Z" fill="#1415D2"/>
<path d="M173.745 57.8739H188.279V72.4082H173.745V57.8739Z" fill="#1415D2"/>
<path d="M173.745 14.6253H188.279V29.1597H173.745V14.6253Z" fill="#1415D2"/>
<path d="M173.745 43.3395H188.279V57.8739H173.745V43.3395Z" fill="#1415D2"/>
<path d="M188.279 43.3395H202.813V57.8739H188.279V43.3395Z" fill="#1415D2"/>
<path d="M188.279 57.8739H202.813V72.4082H188.279V57.8739Z" fill="#1415D2"/>
<path d="M188.279 72.4082H202.813V86.9426H188.279V72.4082Z" fill="#1415D2"/>
<path d="M188.279 29.1597H202.813V43.694H188.279V29.1597Z" fill="#1415D2"/>
<path d="M202.813 72.4082H217.348V86.9426H202.813V72.4082Z" fill="#1415D2"/>
<path d="M202.813 43.3395H217.348V57.8739H202.813V43.3395Z" fill="#1415D2"/>
<path d="M217.348 72.4082H231.882V86.9426H217.348V72.4082Z" fill="#1415D2"/>
<path d="M217.348 43.3395H231.882V57.8739H217.348V43.3395Z" fill="#1415D2"/>
<path d="M217.348 29.1597H231.882V43.694H217.348V29.1597Z" fill="#1415D2"/>
<path d="M231.882 72.4082H246.417V86.9426H231.882V72.4082Z" fill="#1415D2"/>
<path d="M231.882 43.3395H246.417V57.8739H231.882V43.3395Z" fill="#1415D2"/>
<path d="M231.882 29.1597H246.417V43.694H231.882V29.1597Z" fill="#1415D2"/>
<path d="M231.882 57.8739H246.417V72.4082H231.882V57.8739Z" fill="#1415D2"/>
<path d="M246.062 43.3395H260.596V57.8739H246.062V43.3395Z" fill="#1415D2"/>
<path d="M246.062 72.4082H260.596V86.9426H246.062V72.4082Z" fill="#1415D2"/>
<path d="M246.062 57.8739H260.596V72.4082H246.062V57.8739Z" fill="#1415D2"/>
<path d="M246.062 86.9426H260.596V101.477H246.062V86.9426Z" fill="#1415D2"/>
<path d="M246.062 29.1597H260.596V43.694H246.062V29.1597Z" fill="#1415D2"/>
<path d="M260.596 57.8739H275.131V72.4082H260.596V57.8739Z" fill="#1415D2"/>
<path d="M260.596 43.3395H275.131V57.8739H260.596V43.3395Z" fill="#1415D2"/>
<path d="M260.596 72.4082H275.131V86.9426H260.596V72.4082Z" fill="#1415D2"/>
<path d="M260.596 86.9426H275.131V101.477H260.596V86.9426Z" fill="#1415D2"/>
<path d="M275.131 86.9426L289.665 86.9425V101.477H275.131V86.9426Z" fill="#1415D2"/>
<path d="M275.131 57.8739H289.665V72.4082H275.131V57.8739Z" fill="#1415D2"/>
<path d="M275.131 72.4082H289.665V86.9425L275.131 86.9426V72.4082Z" fill="#1415D2"/>
<path d="M289.665 72.4082H304.199V86.9426L289.665 86.9425V72.4082Z" fill="#1415D2"/>
<path d="M304.199 72.4082H318.734V86.9426H304.199V72.4082Z" fill="#1415D2"/>
<path d="M72.3594 246.466H86.8937V261H72.3594V246.466Z" fill="#1415D2"/>
<path d="M86.8937 246.466H101.428V261H86.8937V246.466Z" fill="#1415D2"/>
<path d="M101.428 246.466H115.962V261H101.428V246.466Z" fill="#1415D2"/>
<path d="M115.962 246.466H130.497V261H115.962V246.466Z" fill="#1415D2"/>
<path d="M130.142 246.466H144.677V261H130.142V246.466Z" fill="#1415D2"/>
<path d="M144.677 246.466H159.211V261H144.677V246.466Z" fill="#1415D2"/>
<path d="M144.676 231.931H159.211V246.466H144.677L144.676 231.931Z" fill="#1415D2"/>
<path d="M159.211 246.466H173.745V261H159.211V246.466Z" fill="#1415D2"/>
<path d="M159.211 231.931H173.745V246.466H159.211V231.931Z" fill="#1415D2"/>
<path d="M173.745 246.466H188.279V261H173.745V246.466Z" fill="#1415D2"/>
<path d="M188.279 246.466H202.813V261H188.279V246.466Z" fill="#1415D2"/>
<path d="M188.279 231.931H202.813V246.466H188.279L188.279 231.931Z" fill="#1415D2"/>
<path d="M188.279 217.397H202.813V231.931H188.279V217.397Z" fill="#1415D2"/>
<path d="M202.813 217.397H217.348V231.931L202.813 231.931V217.397Z" fill="#1415D2"/>
<path d="M202.813 231.931L217.348 231.931V246.466L202.813 246.466V231.931Z" fill="#1415D2"/>
<path d="M202.813 246.466L217.348 246.466V261H202.813V246.466Z" fill="#1415D2"/>
<path d="M217.348 231.931L231.882 231.931V246.466H217.348V231.931Z" fill="#1415D2"/>
<path d="M217.348 246.466H231.882V261H217.348V246.466Z" fill="#1415D2"/>
<path d="M217.348 217.397H231.882V231.931L217.348 231.931V217.397Z" fill="#1415D2"/>
<path d="M231.882 246.466L246.417 246.466V261H231.882V246.466Z" fill="#1415D2"/>
<path d="M246.062 231.931H260.596V246.466H246.062V231.931Z" fill="#1415D2"/>
<path d="M246.062 246.466H260.596V261H246.062V246.466Z" fill="#1415D2"/>
<path d="M260.596 231.931H275.131V246.466H260.596V231.931Z" fill="#1415D2"/>
<path d="M275.131 231.931H289.665V246.466H275.131V231.931Z" fill="#1415D2"/>
<path d="M289.665 231.931H304.199V246.466H289.665V231.931Z" fill="#1415D2"/>
<path d="M304.199 231.931H318.734V246.466H304.199V231.931Z" fill="#1415D2"/>
<path d="M318.734 231.931H333.268V246.466H318.734V231.931Z" fill="#1415D2"/>
<path d="M333.268 231.931H347.803V246.466H333.268V231.931Z" fill="#1415D2"/>
<path d="M347.803 231.931H362.337V246.466H347.803V231.931Z" fill="#1415D2"/>
<path d="M361.982 231.931H376.516V246.466H361.982V231.931Z" fill="#1415D2"/>
<path d="M72.3594 173.794H86.8937V188.328H72.3594V173.794Z" fill="#1415D2"/>
<path d="M86.8937 173.794H101.428V188.328H86.8937V173.794Z" fill="#1415D2"/>
<path d="M101.428 173.794H115.962V188.328H101.428V173.794Z" fill="#1415D2"/>
<path d="M115.962 188.328L130.497 188.328V202.863H115.963L115.962 188.328Z" fill="#1415D2"/>
<path d="M115.962 173.794H130.497V188.328L115.962 188.328V173.794Z" fill="#1415D2"/>
<path d="M130.142 188.328H144.677V202.863H130.142V188.328Z" fill="#1415D2"/>
<path d="M130.142 173.794H144.677V188.328H130.142V173.794Z" fill="#1415D2"/>
<path d="M144.677 173.794H159.211V188.328L144.677 188.328V173.794Z" fill="#1415D2"/>
<path d="M144.677 188.328L159.211 188.328V202.863H144.677V188.328Z" fill="#1415D2"/>
<path d="M159.211 188.328L173.745 188.328V202.863H159.211V188.328Z" fill="#1415D2"/>
<path d="M159.211 173.794H173.745V188.328L159.211 188.328V173.794Z" fill="#1415D2"/>
<path d="M173.745 188.328H188.279V202.863H173.745V188.328Z" fill="#1415D2"/>
<path d="M173.745 173.794H188.279V188.328H173.745V173.794Z" fill="#1415D2"/>
<path d="M188.279 188.328H202.813V202.863H188.279V188.328Z" fill="#1415D2"/>
<path d="M188.279 202.863H202.813V217.397H188.279L188.279 202.863Z" fill="#1415D2"/>
<path d="M188.279 173.794H202.813V188.328H188.279V173.794Z" fill="#1415D2"/>
<path d="M202.813 202.863L217.348 202.863V217.397H202.813V202.863Z" fill="#1415D2"/>
<path d="M202.813 173.794H217.348V188.328L202.813 188.328V173.794Z" fill="#1415D2"/>
<path d="M217.348 202.863H231.882V217.397H217.348V202.863Z" fill="#1415D2"/>
<path d="M217.348 188.328L231.882 188.328V202.863H217.348V188.328Z" fill="#1415D2"/>
<path d="M217.348 173.794H231.882V188.328L217.348 188.328V173.794Z" fill="#1415D2"/>
<path d="M231.882 217.397H246.417V231.931L231.882 231.931V217.397Z" fill="#1415D2"/>
<path d="M231.882 202.863H246.417V217.397H231.882V202.863Z" fill="#1415D2"/>
<path d="M231.882 173.794H246.417V188.328L231.882 188.328V173.794Z" fill="#1415D2"/>
<path d="M246.062 202.863H260.596V217.397H246.062V202.863Z" fill="#1415D2"/>
<path d="M246.062 173.794H260.596V188.328H246.062V173.794Z" fill="#1415D2"/>
<path d="M246.062 217.397H260.596V231.931H246.062V217.397Z" fill="#1415D2"/>
<path d="M260.596 202.863H275.131V217.397H260.596V202.863Z" fill="#1415D2"/>
<path d="M260.596 217.397H275.131V231.931H260.596V217.397Z" fill="#1415D2"/>
<path d="M275.131 202.863H289.665V217.397H275.131V202.863Z" fill="#1415D2"/>
<path d="M275.131 173.794H289.665V188.328H275.131V173.794Z" fill="#1415D2"/>
<path d="M275.131 217.397H289.665V231.931H275.131V217.397Z" fill="#1415D2"/>
<path d="M275.131 188.328H289.665V202.863H275.131L275.131 188.328Z" fill="#1415D2"/>
<path d="M289.665 188.328L304.199 188.328V202.863L289.665 202.863V188.328Z" fill="#1415D2"/>
<path d="M289.665 217.397L304.199 217.397V231.931H289.665V217.397Z" fill="#1415D2"/>
<path d="M289.665 173.794H304.199V188.328L289.665 188.328V173.794Z" fill="#1415D2"/>
<path d="M289.665 202.863L304.199 202.863V217.397L289.665 217.397V202.863Z" fill="#1415D2"/>
<path d="M304.199 202.863L318.734 202.863V217.397L304.199 217.397V202.863Z" fill="#1415D2"/>
<path d="M304.199 173.794H318.734V188.328L304.199 188.328V173.794Z" fill="#1415D2"/>
<path d="M304.199 217.397L318.734 217.397V231.931H304.199V217.397Z" fill="#1415D2"/>
<path d="M304.199 188.328L318.734 188.328V202.863L304.199 202.863V188.328Z" fill="#1415D2"/>
<path d="M318.734 202.863H333.268V217.397H318.734V202.863Z" fill="#1415D2"/>
<path d="M318.734 217.397H333.268V231.931H318.734V217.397Z" fill="#1415D2"/>
<path d="M318.734 188.328L333.268 188.328V202.863H318.734V188.328Z" fill="#1415D2"/>
<path d="M318.734 173.794H333.268V188.328L318.734 188.328V173.794Z" fill="#1415D2"/>
<path d="M318.734 159.26H333.268V173.794H318.734L318.734 159.26Z" fill="#1415D2"/>
<path d="M333.268 188.328H347.803V202.863L333.268 202.863V188.328Z" fill="#1415D2"/>
<path d="M333.268 217.397L347.803 217.397V231.931H333.268V217.397Z" fill="#1415D2"/>
<path d="M333.268 173.794H347.803V188.328H333.268V173.794Z" fill="#1415D2"/>
<path d="M333.268 145.08H347.803V159.614H333.268V145.08Z" fill="#1415D2"/>
<path d="M333.268 159.26H347.803V173.794H333.268V159.26Z" fill="#1415D2"/>
<path d="M347.803 145.08H362.337V159.614H347.803V145.08Z" fill="#1415D2"/>
<path d="M347.803 159.26H362.337V173.794L347.803 173.794V159.26Z" fill="#1415D2"/>
<path d="M347.803 217.397H362.337V231.931H347.803V217.397Z" fill="#1415D2"/>
<path d="M347.802 130.546H362.337V145.08H347.803L347.802 130.546Z" fill="#1415D2"/>
<path d="M347.803 188.328H362.337V202.863H347.803V188.328Z" fill="#1415D2"/>
<path d="M347.803 202.863H362.337V217.397H347.803V202.863Z" fill="#1415D2"/>
<path d="M347.803 173.794L362.337 173.794V188.328H347.803V173.794Z" fill="#1415D2"/>
<path d="M361.982 188.328H376.516V202.863H361.982V188.328Z" fill="#1415D2"/>
<path d="M361.982 145.08H376.516V159.614H361.982V145.08Z" fill="#1415D2"/>
<path d="M361.982 217.397H376.516V231.931H361.982V217.397Z" fill="#1415D2"/>
<path d="M361.982 130.546H376.516V145.08H361.982V130.546Z" fill="#1415D2"/>
<path d="M361.982 173.794H376.516V188.328H361.982V173.794Z" fill="#1415D2"/>
<path d="M376.516 188.328H391.051V202.863H376.516V188.328Z" fill="#1415D2"/>
<path d="M376.516 202.863H391.051V217.397L376.516 217.397V202.863Z" fill="#1415D2"/>
<path d="M376.516 145.08H391.051V159.614H376.516V145.08Z" fill="#1415D2"/>
<path d="M376.516 217.397L391.051 217.397V231.931L376.516 231.931V217.397Z" fill="#1415D2"/>
<path d="M376.516 130.546H391.051V145.08H376.516V130.546Z" fill="#1415D2"/>
<path d="M376.517 159.26H391.051V173.794L376.516 173.794L376.517 159.26Z" fill="#1415D2"/>
<path d="M376.516 173.794L391.051 173.794V188.328H376.516V173.794Z" fill="#1415D2"/>
<path d="M391.051 217.397L405.586 217.397V231.931H391.051V217.397Z" fill="#1415D2"/>
<path d="M391.051 159.26H405.586V173.794H391.051V159.26Z" fill="#1415D2"/>
<path d="M391.051 202.863L405.586 202.863V217.397L391.051 217.397V202.863Z" fill="#1415D2"/>
<path d="M391.051 188.328H405.586V202.863L391.051 202.863V188.328Z" fill="#1415D2"/>
<path d="M391.051 130.546H405.586V145.08H391.051V130.546Z" fill="#1415D2"/>
<path d="M391.051 173.794H405.586V188.328H391.051V173.794Z" fill="#1415D2"/>
<path d="M391.051 145.08H405.586V159.614H391.051V145.08Z" fill="#1415D2"/>
<path d="M405.586 188.328H420.12V202.863L405.586 202.863V188.328Z" fill="#1415D2"/>
<path d="M405.586 217.397H420.12V231.931H405.586V217.397Z" fill="#1415D2"/>
<path d="M405.586 173.794L420.12 173.794V188.328H405.586V173.794Z" fill="#1415D2"/>
<path d="M405.586 159.26H420.12V173.794L405.586 173.794V159.26Z" fill="#1415D2"/>
<path d="M405.586 202.863L420.12 202.863V217.397H405.586V202.863Z" fill="#1415D2"/>
<path d="M405.585 116.011H420.12V130.546H405.586L405.585 116.011Z" fill="#1415D2"/>
<path d="M405.585 101.477H420.12V116.011H405.585V101.477Z" fill="#1415D2"/>
<path d="M405.586 145.08H420.12V159.614H405.586V145.08Z" fill="#1415D2"/>
<path d="M405.586 130.546H420.12V145.08H405.586V130.546Z" fill="#1415D2"/>
<path d="M420.12 173.794H434.654V188.328L420.12 188.328V173.794Z" fill="#1415D2"/>
<path d="M420.12 188.328L434.654 188.328V202.863H420.12V188.328Z" fill="#1415D2"/>
<path d="M420.12 159.26H434.654V173.794H420.12V159.26Z" fill="#1415D2"/>
<path d="M420.12 145.08H434.654V159.614H420.12V145.08Z" fill="#1415D2"/>
<path d="M420.12 231.931L434.654 231.931V246.466H420.12L420.12 231.931Z" fill="#1415D2"/>
<path d="M420.12 217.397H434.654V231.931L420.12 231.931V217.397Z" fill="#1415D2"/>
<path d="M420.12 130.546H434.654V145.08H420.12V130.546Z" fill="#1415D2"/>
<path d="M420.12 116.011H434.654V130.546H420.12V116.011Z" fill="#1415D2"/>
<path d="M420.12 101.477H434.654V116.011H420.12V101.477Z" fill="#1415D2"/>
<path d="M434.654 145.08H449.188V159.614H434.654V145.08Z" fill="#1415D2"/>
<path d="M434.654 130.546H449.188V145.08H434.654V130.546Z" fill="#1415D2"/>
<path d="M434.654 101.477H449.188V116.011L434.654 116.011V101.477Z" fill="#1415D2"/>
<path d="M434.654 116.011L449.188 116.011V130.546H434.654V116.011Z" fill="#1415D2"/>
<path d="M434.654 231.931H449.188V246.466H434.654V231.931Z" fill="#1415D2"/>
<path d="M434.654 188.328L449.188 188.328V202.863H434.654V188.328Z" fill="#1415D2"/>
<path d="M434.654 217.397H449.188V231.931H434.654V217.397Z" fill="#1415D2"/>
<path d="M449.188 145.08H463.723V159.614H449.188V145.08Z" fill="#1415D2"/>
<path d="M449.188 231.931H463.723V246.466H449.188V231.931Z" fill="#1415D2"/>
<path d="M449.188 116.011L463.723 116.011V130.546H449.188V116.011Z" fill="#1415D2"/>
<path d="M449.188 188.328H463.723V202.863H449.188V188.328Z" fill="#1415D2"/>
<path d="M449.188 217.397H463.723V231.931H449.188V217.397Z" fill="#1415D2"/>
<path d="M449.188 130.546H463.723V145.08H449.188V130.546Z" fill="#1415D2"/>
<path d="M463.723 188.328H478.257V202.863H463.723V188.328Z" fill="#1415D2"/>
<path d="M463.723 159.26H478.257V173.794H463.723V159.26Z" fill="#1415D2"/>
<path d="M463.723 130.546H478.257V145.08H463.723V130.546Z" fill="#1415D2"/>
<path d="M463.723 116.011H478.257V130.546H463.723V116.011Z" fill="#1415D2"/>
<path d="M463.723 145.08H478.257V159.614H463.723V145.08Z" fill="#1415D2"/>
<path d="M463.723 231.931H478.257V246.466H463.723V231.931Z" fill="#1415D2"/>
<path d="M463.723 217.397H478.257V231.931H463.723V217.397Z" fill="#1415D2"/>
<path d="M463.723 173.794H478.257V188.328H463.723L463.723 173.794Z" fill="#1415D2"/>
<path d="M477.903 173.794H492.437V188.328H477.903V173.794Z" fill="#1415D2"/>
<path d="M477.903 159.26H492.437V173.794H477.903V159.26Z" fill="#1415D2"/>
<path d="M477.903 145.08H492.437V159.614H477.903V145.08Z" fill="#1415D2"/>
<path d="M477.903 130.546H492.437V145.08H477.903V130.546Z" fill="#1415D2"/>
<path d="M477.903 202.863H492.437V217.397H477.903V202.863Z" fill="#1415D2"/>
<path d="M477.903 217.397H492.437V231.931H477.903V217.397Z" fill="#1415D2"/>
<path d="M477.903 231.931H492.437V246.466H477.903V231.931Z" fill="#1415D2"/>
<path d="M477.903 188.328H492.437V202.863H477.903V188.328Z" fill="#1415D2"/>
<path d="M492.437 159.26H506.971V173.794L492.437 173.794V159.26Z" fill="#1415D2"/>
<path d="M492.437 188.328L506.971 188.328V202.863L492.437 202.863V188.328Z" fill="#1415D2"/>
<path d="M492.437 173.794L506.971 173.794V188.328L492.437 188.328V173.794Z" fill="#1415D2"/>
<path d="M492.437 231.931L506.971 231.931V246.466H492.437V231.931Z" fill="#1415D2"/>
<path d="M492.437 217.397L506.971 217.397V231.931L492.437 231.931V217.397Z" fill="#1415D2"/>
<path d="M492.437 202.863L506.971 202.863V217.397L492.437 217.397V202.863Z" fill="#1415D2"/>
<path d="M506.971 202.863L521.505 202.863V217.397L506.971 217.397V202.863Z" fill="#1415D2"/>
<path d="M506.971 231.931H521.505V246.466H506.971V231.931Z" fill="#1415D2"/>
<path d="M506.971 188.328H521.505V202.863L506.971 202.863V188.328Z" fill="#1415D2"/>
<path d="M506.971 217.397L521.505 217.397V231.931H506.971V217.397Z" fill="#1415D2"/>
<path d="M506.971 173.794L521.505 173.794V188.328H506.971V173.794Z" fill="#1415D2"/>
<path d="M506.971 159.26H521.505V173.794L506.971 173.794V159.26Z" fill="#1415D2"/>
<path d="M521.505 217.397L536.04 217.397V231.931L521.505 231.931V217.397Z" fill="#1415D2"/>
<path d="M521.505 231.931L536.04 231.931V246.466H521.505V231.931Z" fill="#1415D2"/>
<path d="M521.505 173.794H536.04V188.328L521.505 188.328V173.794Z" fill="#1415D2"/>
<path d="M521.505 202.863H536.04V217.397L521.505 217.397V202.863Z" fill="#1415D2"/>
<path d="M521.505 188.328L536.04 188.328V202.863H521.505V188.328Z" fill="#1415D2"/>
<path d="M521.505 159.26H536.04V173.794H521.505V159.26Z" fill="#1415D2"/>
<path d="M536.04 202.863H550.574V217.397L536.04 217.397V202.863Z" fill="#1415D2"/>
<path d="M536.04 159.26H550.574V173.794L536.04 173.794V159.26Z" fill="#1415D2"/>
<path d="M550.575 188.328H565.109V202.863L550.574 202.863L550.575 188.328Z" fill="#1415D2"/>
<path d="M550.574 202.863L565.109 202.863V217.397H550.574V202.863Z" fill="#1415D2"/>
<path d="M565.109 202.863L579.643 202.863V217.397H565.109V202.863Z" fill="#1415D2"/>
<path d="M565.109 188.328H579.643V202.863L565.109 202.863V188.328Z" fill="#1415D2"/>
<path d="M536.04 188.328L550.575 188.328L550.574 202.863H536.04V188.328Z" fill="#1415D2"/>
</svg>
