<svg width="200" height="73" viewBox="0 0 200 73" fill="none" xmlns="http://www.w3.org/2000/svg">
<path d="M199.026 61.423H193.438V67.0111H199.026V61.423Z" fill="white"/>
<path d="M193.438 61.423H187.849V67.0111H193.438V61.423Z" fill="white"/>
<path d="M193.438 67.0111H187.849V72.5992H193.438L193.438 67.0111Z" fill="white"/>
<path d="M187.849 61.423H182.261V67.0111H187.849V61.423Z" fill="white"/>
<path d="M187.849 67.0111H182.261V72.5992H187.849V67.0111Z" fill="white"/>
<path d="M182.261 67.0111L176.673 67.0111V72.5992H182.261V67.0111Z" fill="white"/>
<path d="M149.592 61.423H144.004V67.0111H149.592V61.423Z" fill="white"/>
<path d="M149.592 67.0111H144.004V72.5992H149.592V67.0111Z" fill="white"/>
<path d="M144.004 61.423H138.416V67.0111H144.004V61.423Z" fill="white"/>
<path d="M144.004 67.0111H138.416V72.5992H144.004V67.0111Z" fill="white"/>
<path d="M177.103 55.8349H171.515V61.423H177.103V55.8349Z" fill="white"/>
<path d="M171.515 55.8349H165.927V61.423H171.515V55.8349Z" fill="white"/>
<path d="M171.515 61.423H165.927V67.0111H171.515L171.515 61.423Z" fill="white"/>
<path d="M165.927 50.6766H160.338V56.2647H165.927V50.6766Z" fill="white"/>
<path d="M165.927 55.8349H160.338V61.423H165.927V55.8349Z" fill="white"/>
<path d="M165.927 61.423H160.338V67.0111H165.927V61.423Z" fill="white"/>
<path d="M160.338 50.6766H154.751V56.2647H160.338V50.6766Z" fill="white"/>
<path d="M160.338 61.423L154.751 61.423V67.0111H160.338V61.423Z" fill="white"/>
<path d="M154.751 61.423H149.162V67.0111H154.751V61.423Z" fill="white"/>
<path d="M154.751 50.6766H149.162V56.2647H154.751V50.6766Z" fill="white"/>
<path d="M154.751 67.0111H149.162V72.5992H154.75L154.751 67.0111Z" fill="white"/>
<path d="M99.7288 11.9895H94.1407V17.5776H99.7288V11.9895Z" fill="white"/>
<path d="M99.7288 6.40138H94.1407V11.9895H99.7288V6.40138Z" fill="white"/>
<path d="M94.5707 6.40138H88.9826V11.9895H94.5707V6.40138Z" fill="white"/>
<path d="M94.5707 11.9895H88.9826V17.5776H94.5707V11.9895Z" fill="white"/>
<path d="M94.5707 0.813232H88.9826V6.40138H94.5707V0.813232Z" fill="white"/>
<path d="M88.9826 6.40138H83.3942V11.9895H88.9826V6.40138Z" fill="white"/>
<path d="M88.9826 0.813232H83.3942V6.40138H88.9826V0.813232Z" fill="white"/>
<path d="M88.9826 11.9895H83.3942V17.5776H88.9826V11.9895Z" fill="white"/>
<path d="M83.3942 0.813232H77.8065V6.40138L83.3942 6.40138V0.813232Z" fill="white"/>
<path d="M83.3942 6.40138L77.8065 6.40138V11.9895H83.3942V6.40138Z" fill="white"/>
<path d="M77.8065 0.813232H72.2181V6.40138H77.8065V0.813232Z" fill="white"/>
<path d="M33.9611 39.5003H28.373V45.0885H33.9611V39.5003Z" fill="white"/>
<path d="M33.9611 45.0885H28.373V50.6766H33.9611V45.0885Z" fill="white"/>
<path d="M33.9611 33.9122H28.373V39.5003H33.9611V33.9122Z" fill="white"/>
<path d="M33.9611 61.423H28.373V67.0111H33.9611V61.423Z" fill="white"/>
<path d="M33.9611 50.6766H28.373V56.2647H33.9611V50.6766Z" fill="white"/>
<path d="M28.373 61.423H22.7846V67.0111H28.373V61.423Z" fill="white"/>
<path d="M28.373 45.0885L22.7846 45.0885V50.6766H28.373V45.0885Z" fill="white"/>
<path d="M28.373 33.9122H22.7846V39.5003L28.373 39.5003V33.9122Z" fill="white"/>
<path d="M28.3728 55.8349H22.7846V61.423H28.373L28.3728 55.8349Z" fill="white"/>
<path d="M28.373 50.6766H22.7846V56.2647H28.373V50.6766Z" fill="white"/>
<path d="M28.373 39.5003L22.7846 39.5003V45.0885L28.373 45.0885V39.5003Z" fill="white"/>
<path d="M22.7846 45.0885H17.1969V50.6766H22.7846V45.0885Z" fill="white"/>
<path d="M22.7846 61.423H17.1969V67.0111H22.7846V61.423Z" fill="white"/>
<path d="M22.7846 50.6766H17.1969V56.2647H22.7846V50.6766Z" fill="white"/>
<path d="M22.7846 55.8349H17.1969V61.423H22.7846V55.8349Z" fill="white"/>
<path d="M17.1969 45.0885H11.6085V50.6766H17.1969V45.0885Z" fill="white"/>
<path d="M17.1969 55.8349H11.6085V61.423L17.1969 61.423V55.8349Z" fill="white"/>
<path d="M17.1969 61.423L11.6085 61.423V67.0111H17.1969V61.423Z" fill="white"/>
<path d="M17.1969 50.6766H11.6085V56.2647H17.1969V50.6766Z" fill="white"/>
<path d="M11.6085 55.8349H6.02014V61.423H11.6085V55.8349Z" fill="white"/>
<path d="M11.6085 45.0885H6.02014V50.6766H11.6085V45.0885Z" fill="white"/>
<path d="M11.6085 50.6766H6.02014V56.2647H11.6085V50.6766Z" fill="white"/>
<path d="M6.45017 45.0885H0.862061V50.6766H6.45017V45.0885Z" fill="white"/>
<path d="M6.45017 50.6766H0.862061V56.2647H6.45017V50.6766Z" fill="white"/>
<path d="M149.592 50.6766H144.004V56.2647H149.592V50.6766Z" fill="white"/>
<path d="M149.592 39.5003H144.004V45.0885H149.592V39.5003Z" fill="white"/>
<path d="M144.004 39.5003H138.416V45.0885H144.004V39.5003Z" fill="white"/>
<path d="M144.004 50.6766H138.416V56.2647H144.004V50.6766Z" fill="white"/>
<path d="M138.416 50.6766H132.828V56.2647H138.416V50.6766Z" fill="white"/>
<path d="M138.416 45.0885L132.828 45.0885V50.6766H138.416V45.0885Z" fill="white"/>
<path d="M138.416 39.5003H132.828V45.0885L138.416 45.0885V39.5003Z" fill="white"/>
<path d="M132.828 28.324H127.24V33.9122H132.828V28.324Z" fill="white"/>
<path d="M132.828 45.0885H127.24V50.6766L132.828 50.6766V45.0885Z" fill="white"/>
<path d="M132.828 33.9122H127.24V39.5003L132.828 39.5003L132.828 33.9122Z" fill="white"/>
<path d="M132.828 50.6766L127.24 50.6766V56.2647H132.828V50.6766Z" fill="white"/>
<path d="M132.828 39.5003L127.24 39.5003V45.0885H132.828V39.5003Z" fill="white"/>
<path d="M127.24 50.6766L121.652 50.6766V56.2647H127.24V50.6766Z" fill="white"/>
<path d="M127.24 39.5003L121.652 39.5003V45.0885L127.24 45.0885V39.5003Z" fill="white"/>
<path d="M127.24 45.0885L121.652 45.0885V50.6766L127.24 50.6766V45.0885Z" fill="white"/>
<path d="M127.24 55.8349H121.652V61.423H127.24V55.8349Z" fill="white"/>
<path d="M127.24 33.9122L121.652 33.9122V39.5003L127.24 39.5003V33.9122Z" fill="white"/>
<path d="M127.24 28.324H121.652V33.9122L127.24 33.9122V28.324Z" fill="white"/>
<path d="M122.082 39.5003H116.494V45.0885H122.082V39.5003Z" fill="white"/>
<path d="M122.082 50.6766H116.494V56.2647H122.082V50.6766Z" fill="white"/>
<path d="M122.082 55.8349H116.494V61.423H122.082V55.8349Z" fill="white"/>
<path d="M122.082 45.0885H116.494V50.6766H122.082V45.0885Z" fill="white"/>
<path d="M122.082 33.9122H116.494V39.5003H122.082V33.9122Z" fill="white"/>
<path d="M116.494 33.9122H110.905V39.5003L116.494 39.5003V33.9122Z" fill="white"/>
<path d="M116.494 55.8349H110.905V61.423H116.494V55.8349Z" fill="white"/>
<path d="M116.494 45.0885L110.905 45.0885V50.6766L116.494 50.6766V45.0885Z" fill="white"/>
<path d="M116.494 39.5003L110.905 39.5003V45.0885L116.494 45.0885V39.5003Z" fill="white"/>
<path d="M116.494 50.6766L110.905 50.6766V56.2647H116.494V50.6766Z" fill="white"/>
<path d="M105.317 45.0885H99.729V50.6766H105.317V45.0885Z" fill="white"/>
<path d="M105.317 39.5003H99.729V45.0885H105.317V39.5003Z" fill="white"/>
<path d="M105.317 55.8349H99.729V61.423H105.317V55.8349Z" fill="white"/>
<path d="M105.317 33.9122H99.729V39.5003H105.317V33.9122Z" fill="white"/>
<path d="M105.317 23.1658H99.729V28.7539H105.317V23.1658Z" fill="white"/>
<path d="M105.317 28.324H99.729V33.9122H105.317V28.324Z" fill="white"/>
<path d="M105.317 50.6766H99.729V56.2647H105.317V50.6766Z" fill="white"/>
<path d="M99.729 55.8349H94.1407V61.423H99.729V55.8349Z" fill="white"/>
<path d="M99.729 23.1658H94.1407V28.7539H99.729V23.1658Z" fill="white"/>
<path d="M99.729 50.6766L94.1407 50.6766V56.2647H99.729V50.6766Z" fill="white"/>
<path d="M99.729 45.0885H94.1407V50.6766L99.729 50.6766V45.0885Z" fill="white"/>
<path d="M99.729 33.9122H94.1407V39.5003L99.729 39.5003V33.9122Z" fill="white"/>
<path d="M99.729 39.5003L94.1407 39.5003V45.0885H99.729V39.5003Z" fill="white"/>
<path d="M99.729 28.324H94.1407V33.9122H99.729V28.324Z" fill="white"/>
<path d="M94.5707 33.9122H88.9826V39.5003H94.5707V33.9122Z" fill="white"/>
<path d="M94.5707 55.8349H88.9826V61.423H94.5707V55.8349Z" fill="white"/>
<path d="M94.5707 50.6766H88.9826V56.2647H94.5707V50.6766Z" fill="white"/>
<path d="M94.5707 39.5003H88.9826V45.0885H94.5707V39.5003Z" fill="white"/>
<path d="M94.5707 45.0885H88.9826V50.6766H94.5707V45.0885Z" fill="white"/>
<path d="M88.9826 50.6766H83.3942V56.2647H88.9826V50.6766Z" fill="white"/>
<path d="M88.9826 39.5003L83.3942 39.5003V45.0885H88.9826V39.5003Z" fill="white"/>
<path d="M88.9826 33.9122H83.3942V39.5003L88.9826 39.5003V33.9122Z" fill="white"/>
<path d="M88.9826 55.8349H83.3942V61.423H88.9826V55.8349Z" fill="white"/>
<path d="M88.9826 45.0885H83.3942V50.6766H88.9826V45.0885Z" fill="white"/>
<path d="M83.3946 23.1658H77.8065V28.7539H83.3946V23.1658Z" fill="white"/>
<path d="M83.3946 28.324H77.8065V33.9122L83.3942 33.9122L83.3946 28.324Z" fill="white"/>
<path d="M83.3942 50.6766H77.8065V56.2647H83.3942V50.6766Z" fill="white"/>
<path d="M83.3942 33.9122L77.8065 33.9122V39.5003L83.3942 39.5003V33.9122Z" fill="white"/>
<path d="M83.3942 39.5003L77.8065 39.5003V45.0885H83.3942V39.5003Z" fill="white"/>
<path d="M83.3942 55.8349H77.8065V61.423H83.3942V55.8349Z" fill="white"/>
<path d="M83.3942 17.5776L77.8065 17.5776V23.1658H83.3946L83.3942 17.5776Z" fill="white"/>
<path d="M83.3942 45.0885H77.8065V50.6766H83.3942V45.0885Z" fill="white"/>
<path d="M77.8065 55.8349H72.2181V61.423H77.8065V55.8349Z" fill="white"/>
<path d="M77.8065 45.0885L72.2181 45.0885V50.6766L77.8065 50.6766V45.0885Z" fill="white"/>
<path d="M77.8065 33.9122L72.2181 33.9122V39.5003H77.8065V33.9122Z" fill="white"/>
<path d="M77.8065 23.1658H72.2181V28.7539H77.8065V23.1658Z" fill="white"/>
<path d="M77.8065 39.5003H72.2181V45.0885L77.8065 45.0885V39.5003Z" fill="white"/>
<path d="M77.8065 17.5776H72.2181V23.1658H77.8065V17.5776Z" fill="white"/>
<path d="M77.8065 28.324H72.2181V33.9122L77.8065 33.9122V28.324Z" fill="white"/>
<path d="M110.905 39.5003L105.317 39.5003V45.0885H110.905V39.5003Z" fill="white"/>
<path d="M110.905 55.8349H105.317V61.423H110.905V55.8349Z" fill="white"/>
<path d="M110.905 50.6766H105.317V56.2647H110.905V50.6766Z" fill="white"/>
<path d="M110.906 28.324H105.317V33.9122H110.905L110.906 28.324Z" fill="white"/>
<path d="M110.905 33.9122H105.317V39.5003L110.905 39.5003V33.9122Z" fill="white"/>
<path d="M110.905 45.0885H105.317V50.6766H110.905V45.0885Z" fill="white"/>
<path d="M72.2181 33.9122H66.6303V39.5003H72.2181V33.9122Z" fill="white"/>
<path d="M72.2181 23.1658H66.6303V28.7539H72.2181V23.1658Z" fill="white"/>
<path d="M72.2181 28.324H66.6303V33.9122H72.2181V28.324Z" fill="white"/>
<path d="M72.2181 61.423L66.6303 61.423V67.0111H72.2185L72.2181 61.423Z" fill="white"/>
<path d="M72.2181 55.8349H66.6303V61.423L72.2181 61.423V55.8349Z" fill="white"/>
<path d="M72.2181 50.6766L66.6303 50.6766V56.2647H72.2185L72.2181 50.6766Z" fill="white"/>
<path d="M72.2181 45.0885H66.6303V50.6766L72.2181 50.6766V45.0885Z" fill="white"/>
<path d="M72.2181 39.5003H66.6303V45.0885H72.2181V39.5003Z" fill="white"/>
<path d="M72.2181 17.5776H66.6303V23.1658H72.2181V17.5776Z" fill="white"/>
<path d="M66.6303 61.423H61.042V67.0111H66.6303V61.423Z" fill="white"/>
<path d="M66.6303 39.5003L61.042 39.5003V45.0885L66.6303 45.0885V39.5003Z" fill="white"/>
<path d="M66.6303 33.9122H61.042V39.5003L66.6303 39.5003V33.9122Z" fill="white"/>
<path d="M66.6303 55.8349H61.042V61.423H66.6303V55.8349Z" fill="white"/>
<path d="M66.6303 45.0885L61.042 45.0885V50.6766L66.6303 50.6766V45.0885Z" fill="white"/>
<path d="M66.6303 28.324H61.042V33.9122H66.6303V28.324Z" fill="white"/>
<path d="M66.6303 17.5776H61.042V23.1658L66.6303 23.1658V17.5776Z" fill="white"/>
<path d="M66.6301 11.9895H61.042V17.5776H66.6303L66.6301 11.9895Z" fill="white"/>
<path d="M66.6303 23.1658L61.042 23.1658V28.7539H66.6303V23.1658Z" fill="white"/>
<path d="M61.472 55.8349H55.8839V61.423H61.472V55.8349Z" fill="white"/>
<path d="M61.472 61.423H55.8839V67.0111H61.472V61.423Z" fill="white"/>
<path d="M61.472 50.6766H55.8839V56.2647H61.472V50.6766Z" fill="white"/>
<path d="M61.472 39.5003H55.8839V45.0885H61.472V39.5003Z" fill="white"/>
<path d="M61.472 45.0885H55.8839V50.6766H61.472V45.0885Z" fill="white"/>
<path d="M61.472 33.9122H55.8839V39.5003H61.472V33.9122Z" fill="white"/>
<path d="M61.472 28.324H55.8839V33.9122H61.472V28.324Z" fill="white"/>
<path d="M55.8839 55.8349H50.2955V61.423H55.8839V55.8349Z" fill="white"/>
<path d="M55.8839 28.324H50.2955V33.9122L55.8839 33.9122V28.324Z" fill="white"/>
<path d="M55.8839 61.423H50.2955V67.0111H55.8839V61.423Z" fill="white"/>
<path d="M55.8839 50.6766H50.2955V56.2647H55.8839V50.6766Z" fill="white"/>
<path d="M55.8839 45.0885L50.2955 45.0885V50.6766H55.8839V45.0885Z" fill="white"/>
<path d="M55.8839 39.5003H50.2955V45.0885L55.8839 45.0885V39.5003Z" fill="white"/>
<path d="M55.8839 33.9122L50.2955 33.9122V39.5003H55.8839V33.9122Z" fill="white"/>
<path d="M50.2955 50.6766H44.7072V56.2647H50.2955V50.6766Z" fill="white"/>
<path d="M50.2955 45.0885H44.7072V50.6766H50.2955V45.0885Z" fill="white"/>
<path d="M50.2955 33.9122L44.7072 33.9122V39.5003L50.2955 39.5003V33.9122Z" fill="white"/>
<path d="M50.2955 55.8349H44.7072V61.423H50.2955V55.8349Z" fill="white"/>
<path d="M50.2955 28.324H44.7072V33.9122L50.2955 33.9122V28.324Z" fill="white"/>
<path d="M50.2955 39.5003L44.7072 39.5003V45.0885H50.2955V39.5003Z" fill="white"/>
<path d="M50.2955 61.423H44.7072V67.0111H50.2955V61.423Z" fill="white"/>
<path d="M44.7072 45.0885H39.1194V50.6766L44.7072 50.6766V45.0885Z" fill="white"/>
<path d="M44.7072 61.423L39.1194 61.423V67.0111H44.7072V61.423Z" fill="white"/>
<path d="M44.7072 33.9122H39.1194V39.5003H44.7072V33.9122Z" fill="white"/>
<path d="M44.7072 50.6766L39.1194 50.6766V56.2647H44.7072V50.6766Z" fill="white"/>
<path d="M44.7072 55.8349H39.1194V61.423L44.7072 61.423V55.8349Z" fill="white"/>
<path d="M44.7072 39.5003H39.1194V45.0885H44.7072V39.5003Z" fill="white"/>
<path d="M39.1194 55.8349H33.5311V61.423L39.1194 61.423V55.8349Z" fill="white"/>
<path d="M39.1194 61.423L33.5311 61.423V67.0111H39.1194V61.423Z" fill="white"/>
<path d="M39.1194 45.0885H33.5311V50.6766H39.1194V45.0885Z" fill="white"/>
<path d="M39.1194 50.6766H33.5311V56.2647H39.1194V50.6766Z" fill="white"/>
<path d="M39.1194 39.5003L33.5311 39.5003V45.0885H39.1194V39.5003Z" fill="white"/>
<path d="M39.1194 33.9122H33.5311V39.5003L39.1194 39.5003V33.9122Z" fill="white"/>
<path d="M160.339 45.0885H154.751V50.6766H160.338L160.339 45.0885Z" fill="white"/>
<path d="M154.751 45.0885H149.162V50.6766H154.751V45.0885Z" fill="white"/>
<path d="M105.317 17.5776L99.7288 17.5776L99.729 23.1658H105.317V17.5776Z" fill="white"/>
</svg>
