<svg width="357" height="130" viewBox="0 0 357 130" fill="none" xmlns="http://www.w3.org/2000/svg">
<path d="M0.931702 109.311H10.9493V119.328H0.931702V109.311Z" fill="white"/>
<path d="M10.9493 109.311H20.9671V119.328H10.9493V109.311Z" fill="white"/>
<path d="M10.9493 119.328H20.9671V129.346H10.9495L10.9493 119.328Z" fill="white"/>
<path d="M20.9671 109.311H30.9853V119.328H20.9671V109.311Z" fill="white"/>
<path d="M20.9671 119.328H30.9853V129.346H20.9671V119.328Z" fill="white"/>
<path d="M30.9853 119.328L41.0022 119.328V129.346H30.9853V119.328Z" fill="white"/>
<path d="M89.5488 109.311H99.5664V119.328H89.5488V109.311Z" fill="white"/>
<path d="M89.5488 119.328H99.5664V129.346H89.5488V119.328Z" fill="white"/>
<path d="M99.5664 109.311H109.584V119.328H99.5664V109.311Z" fill="white"/>
<path d="M99.5664 119.328H109.584V129.346H99.5664V119.328Z" fill="white"/>
<path d="M40.2319 99.2933H50.2494V109.311H40.2319V99.2933Z" fill="white"/>
<path d="M50.2494 99.2933H60.2666V109.311H50.2494V99.2933Z" fill="white"/>
<path d="M50.2494 109.311H60.2666V119.328H50.249L50.2494 109.311Z" fill="white"/>
<path d="M60.2671 90.0463H70.2847V100.064H60.2671V90.0463Z" fill="white"/>
<path d="M60.2666 99.2933H70.2847V109.311H60.2666V99.2933Z" fill="white"/>
<path d="M60.2666 109.311H70.2847V119.328H60.2666V109.311Z" fill="white"/>
<path d="M70.2847 90.0463H80.3017V100.064H70.2847V90.0463Z" fill="white"/>
<path d="M70.2847 109.311H80.3017V119.328H70.2847V109.311Z" fill="white"/>
<path d="M80.3017 109.311H90.3198V119.328H80.3017V109.311Z" fill="white"/>
<path d="M80.3017 90.0463H90.3198V100.064H80.3017V90.0463Z" fill="white"/>
<path d="M80.3017 119.328H90.3198V129.346H80.3022L80.3017 119.328Z" fill="white"/>
<path d="M178.937 20.6939H188.954V30.7115H178.937V20.6939Z" fill="white"/>
<path d="M178.937 10.6763H188.954V20.6939H178.937V10.6763Z" fill="white"/>
<path d="M188.183 10.6763H198.201V20.6939H188.183V10.6763Z" fill="white"/>
<path d="M188.183 20.6939H198.201V30.7115H188.183V20.6939Z" fill="white"/>
<path d="M188.183 0.658691H198.201V10.6763H188.183V0.658691Z" fill="white"/>
<path d="M198.201 10.6763H208.219V20.6939H198.201V10.6763Z" fill="white"/>
<path d="M198.201 0.658691H208.219V10.6763H198.201V0.658691Z" fill="white"/>
<path d="M198.201 20.6939H208.219V30.7115H198.201V20.6939Z" fill="white"/>
<path d="M208.219 0.658691H218.236V10.6763L208.219 10.6763V0.658691Z" fill="white"/>
<path d="M208.219 10.6763L218.236 10.6763V20.6939H208.219V10.6763Z" fill="white"/>
<path d="M218.236 0.658691H228.254V10.6763H218.236V0.658691Z" fill="white"/>
<path d="M296.835 70.0112H306.853V80.0288H296.835V70.0112Z" fill="white"/>
<path d="M296.835 80.0288H306.853V90.0464H296.835V80.0288Z" fill="white"/>
<path d="M296.835 59.9937H306.853V70.0112H296.835V59.9937Z" fill="white"/>
<path d="M296.835 109.311H306.853V119.328H296.835V109.311Z" fill="white"/>
<path d="M296.835 90.0464H306.853V100.064H296.835V90.0464Z" fill="white"/>
<path d="M306.853 109.311H316.871V119.328H306.853V109.311Z" fill="white"/>
<path d="M306.853 80.0288L316.871 80.0288V90.0464H306.853V80.0288Z" fill="white"/>
<path d="M306.853 59.9937H316.871V70.0112H306.853V59.9937Z" fill="white"/>
<path d="M306.854 99.2933H316.871V109.311H306.853L306.854 99.2933Z" fill="white"/>
<path d="M306.853 90.0464H316.871V100.064H306.853V90.0464Z" fill="white"/>
<path d="M306.853 70.0112H316.871V80.0288L306.853 80.0288V70.0112Z" fill="white"/>
<path d="M316.871 80.0288H326.888V90.0464H316.871V80.0288Z" fill="white"/>
<path d="M316.871 109.311H326.888V119.328H316.871V109.311Z" fill="white"/>
<path d="M316.871 90.0464H326.888V100.064H316.871V90.0464Z" fill="white"/>
<path d="M316.871 99.2933H326.888V109.311H316.871V99.2933Z" fill="white"/>
<path d="M326.888 80.0288H336.906V90.0464H326.888V80.0288Z" fill="white"/>
<path d="M326.888 99.2933H336.906V109.311H326.888V99.2933Z" fill="white"/>
<path d="M326.888 109.311H336.906V119.328H326.888V109.311Z" fill="white"/>
<path d="M326.888 90.0464H336.906V100.064H326.888V90.0464Z" fill="white"/>
<path d="M336.906 99.2933H346.924V109.311H336.906V99.2933Z" fill="white"/>
<path d="M336.906 80.0288H346.924V90.0464H336.906V80.0288Z" fill="white"/>
<path d="M336.906 90.0464H346.924V100.064H336.906V90.0464Z" fill="white"/>
<path d="M346.153 80.0288H356.171V90.0464H346.153V80.0288Z" fill="white"/>
<path d="M346.153 90.0464H356.171V100.064H346.153V90.0464Z" fill="white"/>
<path d="M89.5488 90.0463H99.5664V100.064H89.5488V90.0463Z" fill="white"/>
<path d="M89.5488 70.0112H99.5664V80.0288H89.5488V70.0112Z" fill="white"/>
<path d="M99.5664 70.0112H109.584V80.0288H99.5664V70.0112Z" fill="white"/>
<path d="M99.5664 90.0463H109.584V100.064H99.5664V90.0463Z" fill="white"/>
<path d="M109.584 90.0463H119.602V100.064H109.584V90.0463Z" fill="white"/>
<path d="M109.584 80.0288L119.602 80.0288V90.0463H109.584V80.0288Z" fill="white"/>
<path d="M109.584 70.0112H119.602V80.0288L109.584 80.0288V70.0112Z" fill="white"/>
<path d="M119.602 49.976H129.619V59.9936H119.602V49.976Z" fill="white"/>
<path d="M119.602 80.0288H129.619V90.0464L119.602 90.0463V80.0288Z" fill="white"/>
<path d="M119.602 59.9936H129.619V70.0112H119.602L119.602 59.9936Z" fill="white"/>
<path d="M119.602 90.0463L129.619 90.0464V100.064H119.602V90.0463Z" fill="white"/>
<path d="M119.602 70.0112H129.619V80.0288H119.602V70.0112Z" fill="white"/>
<path d="M129.619 90.0464L139.637 90.0463V100.064H129.619V90.0464Z" fill="white"/>
<path d="M129.619 70.0112H139.637V80.0288L129.619 80.0288V70.0112Z" fill="white"/>
<path d="M129.619 80.0288L139.637 80.0288V90.0463L129.619 90.0464V80.0288Z" fill="white"/>
<path d="M129.619 99.2933H139.637V109.311H129.619V99.2933Z" fill="white"/>
<path d="M129.619 59.9936L139.637 59.9937V70.0112H129.619V59.9936Z" fill="white"/>
<path d="M129.619 49.976H139.637V59.9937L129.619 59.9936V49.976Z" fill="white"/>
<path d="M138.866 70.0112H148.883V80.0288H138.866V70.0112Z" fill="white"/>
<path d="M138.866 90.0463H148.883V100.064H138.866V90.0463Z" fill="white"/>
<path d="M138.866 99.2933H148.883V109.311H138.866V99.2933Z" fill="white"/>
<path d="M138.866 80.0288H148.883V90.0463H138.866V80.0288Z" fill="white"/>
<path d="M138.866 59.9937H148.883V70.0112H138.866V59.9937Z" fill="white"/>
<path d="M148.883 59.9937H158.902V70.0112H148.883V59.9937Z" fill="white"/>
<path d="M148.883 99.2933H158.902V109.311H148.883V99.2933Z" fill="white"/>
<path d="M148.883 80.0288L158.902 80.0288V90.0464L148.883 90.0463V80.0288Z" fill="white"/>
<path d="M148.883 70.0112H158.902V80.0288L148.883 80.0288V70.0112Z" fill="white"/>
<path d="M148.883 90.0463L158.902 90.0464V100.064H148.883V90.0463Z" fill="white"/>
<path d="M168.919 80.0288H178.936V90.0464H168.919V80.0288Z" fill="white"/>
<path d="M168.919 70.0112H178.936V80.0288H168.919V70.0112Z" fill="white"/>
<path d="M168.919 99.2933H178.936V109.311H168.919V99.2933Z" fill="white"/>
<path d="M168.919 59.9937H178.936V70.0112H168.919V59.9937Z" fill="white"/>
<path d="M168.919 40.7291H178.936V50.7466H168.919V40.7291Z" fill="white"/>
<path d="M168.919 49.976H178.936V59.9937H168.919V49.976Z" fill="white"/>
<path d="M168.919 90.0464H178.936V100.064H168.919V90.0464Z" fill="white"/>
<path d="M178.936 99.2933H188.954V109.311H178.936V99.2933Z" fill="white"/>
<path d="M178.936 40.7291H188.954V50.7466H178.936V40.7291Z" fill="white"/>
<path d="M178.936 90.0464L188.954 90.0463V100.064H178.936V90.0464Z" fill="white"/>
<path d="M178.936 80.0288H188.954V90.0463L178.936 90.0464V80.0288Z" fill="white"/>
<path d="M178.936 59.9937H188.954V70.0112H178.936V59.9937Z" fill="white"/>
<path d="M178.936 70.0112H188.954V80.0288H178.936V70.0112Z" fill="white"/>
<path d="M178.936 49.976H188.954V59.9937H178.936V49.976Z" fill="white"/>
<path d="M188.183 59.9937H198.201V70.0112H188.183V59.9937Z" fill="white"/>
<path d="M188.183 99.2933H198.201V109.311H188.183V99.2933Z" fill="white"/>
<path d="M188.183 90.0463H198.201V100.064H188.183V90.0463Z" fill="white"/>
<path d="M188.183 70.0112H198.201V80.0288H188.183V70.0112Z" fill="white"/>
<path d="M188.183 80.0288H198.201V90.0463H188.183V80.0288Z" fill="white"/>
<path d="M198.201 90.0463H208.219V100.064H198.201V90.0463Z" fill="white"/>
<path d="M198.201 70.0112H208.219V80.0288H198.201V70.0112Z" fill="white"/>
<path d="M198.201 59.9937H208.219V70.0112H198.201V59.9937Z" fill="white"/>
<path d="M198.201 99.2933H208.219V109.311H198.201V99.2933Z" fill="white"/>
<path d="M198.201 80.0288H208.219V90.0463H198.201V80.0288Z" fill="white"/>
<path d="M208.218 40.7291H218.236V50.7466H208.218V40.7291Z" fill="white"/>
<path d="M208.218 49.976H218.236V59.9936L208.219 59.9937L208.218 49.976Z" fill="white"/>
<path d="M208.219 90.0463H218.236V100.064H208.219V90.0463Z" fill="white"/>
<path d="M208.219 59.9937L218.236 59.9936V70.0112H208.219V59.9937Z" fill="white"/>
<path d="M208.219 70.0112H218.236V80.0288H208.219V70.0112Z" fill="white"/>
<path d="M208.219 99.2933H218.236V109.311H208.219V99.2933Z" fill="white"/>
<path d="M208.219 30.7115L218.236 30.7114V40.7291H208.218L208.219 30.7115Z" fill="white"/>
<path d="M208.219 80.0288H218.236V90.0463H208.219V80.0288Z" fill="white"/>
<path d="M218.236 99.2933H228.254V109.311H218.236V99.2933Z" fill="white"/>
<path d="M218.236 80.0288L228.254 80.0288V90.0464L218.236 90.0463V80.0288Z" fill="white"/>
<path d="M218.236 59.9936L228.254 59.9937V70.0112H218.236V59.9936Z" fill="white"/>
<path d="M218.236 40.7291H228.254V50.7466H218.236V40.7291Z" fill="white"/>
<path d="M218.236 70.0112H228.254V80.0288L218.236 80.0288V70.0112Z" fill="white"/>
<path d="M218.236 30.7114H228.254V40.7291H218.236V30.7114Z" fill="white"/>
<path d="M218.236 49.976H228.254V59.9937L218.236 59.9936V49.976Z" fill="white"/>
<path d="M158.902 70.0112H168.919V80.0288H158.902V70.0112Z" fill="white"/>
<path d="M158.902 99.2933H168.919V109.311H158.902V99.2933Z" fill="white"/>
<path d="M158.902 90.0464H168.919V100.064H158.902V90.0464Z" fill="white"/>
<path d="M158.901 49.976H168.919V59.9937H158.902L158.901 49.976Z" fill="white"/>
<path d="M158.902 59.9937H168.919V70.0112H158.902V59.9937Z" fill="white"/>
<path d="M158.902 80.0288H168.919V90.0464H158.902V80.0288Z" fill="white"/>
<path d="M228.254 59.9937H238.271V70.0112H228.254V59.9937Z" fill="white"/>
<path d="M228.254 40.7291H238.271V50.7466H228.254V40.7291Z" fill="white"/>
<path d="M228.254 49.976H238.271V59.9937H228.254V49.976Z" fill="white"/>
<path d="M228.254 109.311H238.271V119.328H228.253L228.254 109.311Z" fill="white"/>
<path d="M228.254 99.2933H238.271V109.311H228.254V99.2933Z" fill="white"/>
<path d="M228.254 90.0464L238.271 90.0463V100.064H228.253L228.254 90.0464Z" fill="white"/>
<path d="M228.254 80.0288H238.271V90.0463L228.254 90.0464V80.0288Z" fill="white"/>
<path d="M228.254 70.0112H238.271V80.0288H228.254V70.0112Z" fill="white"/>
<path d="M228.254 30.7114H238.271V40.7291H228.254V30.7114Z" fill="white"/>
<path d="M238.271 109.311H248.289V119.328H238.271V109.311Z" fill="white"/>
<path d="M238.271 70.0112H248.289V80.0288L238.271 80.0288V70.0112Z" fill="white"/>
<path d="M238.271 59.9937H248.289V70.0112H238.271V59.9937Z" fill="white"/>
<path d="M238.271 99.2933H248.289V109.311H238.271V99.2933Z" fill="white"/>
<path d="M238.271 80.0288L248.289 80.0288V90.0464L238.271 90.0463V80.0288Z" fill="white"/>
<path d="M238.271 49.976H248.289V59.9937H238.271V49.976Z" fill="white"/>
<path d="M238.271 30.7114H248.289V40.729L238.271 40.7291V30.7114Z" fill="white"/>
<path d="M238.271 20.6939H248.289V30.7114H238.271L238.271 20.6939Z" fill="white"/>
<path d="M238.271 40.7291L248.289 40.729V50.7466H238.271V40.7291Z" fill="white"/>
<path d="M247.518 99.2933H257.536V109.311H247.518V99.2933Z" fill="white"/>
<path d="M247.518 109.311H257.536V119.328H247.518V109.311Z" fill="white"/>
<path d="M247.518 90.0463H257.536V100.064H247.518V90.0463Z" fill="white"/>
<path d="M247.518 70.0112H257.536V80.0288H247.518V70.0112Z" fill="white"/>
<path d="M247.518 80.0288H257.536V90.0463H247.518V80.0288Z" fill="white"/>
<path d="M247.518 59.9937H257.536V70.0112H247.518V59.9937Z" fill="white"/>
<path d="M247.518 49.976H257.536V59.9937H247.518V49.976Z" fill="white"/>
<path d="M257.536 99.2933H267.553V109.311H257.536V99.2933Z" fill="white"/>
<path d="M257.536 49.976H267.553V59.9936L257.536 59.9937V49.976Z" fill="white"/>
<path d="M257.536 109.311H267.553V119.328H257.536V109.311Z" fill="white"/>
<path d="M257.536 90.0463H267.553V100.064H257.536V90.0463Z" fill="white"/>
<path d="M257.536 80.0288L267.553 80.0288V90.0463H257.536V80.0288Z" fill="white"/>
<path d="M257.536 70.0112H267.553V80.0288L257.536 80.0288V70.0112Z" fill="white"/>
<path d="M257.536 59.9937L267.553 59.9936V70.0112H257.536V59.9937Z" fill="white"/>
<path d="M267.553 90.0463H277.572V100.064H267.553V90.0463Z" fill="white"/>
<path d="M267.553 80.0288H277.572V90.0463H267.553V80.0288Z" fill="white"/>
<path d="M267.553 59.9936L277.572 59.9937V70.0112H267.553V59.9936Z" fill="white"/>
<path d="M267.553 99.2933H277.572V109.311H267.553V99.2933Z" fill="white"/>
<path d="M267.553 49.976H277.572V59.9937L267.553 59.9936V49.976Z" fill="white"/>
<path d="M267.553 70.0112H277.572V80.0288H267.553V70.0112Z" fill="white"/>
<path d="M267.553 109.311H277.572V119.328H267.553V109.311Z" fill="white"/>
<path d="M277.572 80.0288H287.589V90.0464L277.572 90.0463V80.0288Z" fill="white"/>
<path d="M277.572 109.311H287.589V119.328H277.572V109.311Z" fill="white"/>
<path d="M277.572 59.9937H287.589V70.0112H277.572V59.9937Z" fill="white"/>
<path d="M277.572 90.0463L287.589 90.0464V100.064H277.572V90.0463Z" fill="white"/>
<path d="M277.572 99.2933H287.589V109.311H277.572V99.2933Z" fill="white"/>
<path d="M277.572 70.0112H287.589V80.0288H277.572V70.0112Z" fill="white"/>
<path d="M287.589 99.2933H297.606V109.311H287.589V99.2933Z" fill="white"/>
<path d="M287.589 109.311H297.606V119.328H287.589V109.311Z" fill="white"/>
<path d="M287.589 80.0288H297.606V90.0464H287.589V80.0288Z" fill="white"/>
<path d="M287.589 90.0464H297.606V100.064H287.589V90.0464Z" fill="white"/>
<path d="M287.589 70.0112H297.606V80.0288H287.589V70.0112Z" fill="white"/>
<path d="M287.589 59.9937H297.606V70.0112H287.589V59.9937Z" fill="white"/>
<path d="M70.2841 80.0288H80.3017V90.0463H70.2847L70.2841 80.0288Z" fill="white"/>
<path d="M80.3017 80.0288H90.3198V90.0463H80.3017V80.0288Z" fill="white"/>
<path d="M168.919 30.7114L178.937 30.7115L178.936 40.7291H168.919V30.7114Z" fill="white"/>
</svg>
