<svg width="545" height="153" viewBox="0 0 545 153" fill="none" xmlns="http://www.w3.org/2000/svg">
<path d="M261.098 61.4694H251.013V71.554H261.098V61.4694Z" fill="#1415D2"/>
<path d="M332.148 81.6385H322.064V91.7231H332.148V81.6385Z" fill="#1415D2"/>
<path d="M332.148 61.4694H322.064V71.554H332.148V61.4694Z" fill="#1415D2"/>
<path d="M321.606 61.4694H311.521V71.554H321.606V61.4694Z" fill="#1415D2"/>
<path d="M301.436 61.4694H291.352V71.554H301.436V61.4694Z" fill="#1415D2"/>
<path d="M291.352 61.4694H281.267V71.554H291.352V61.4694Z" fill="#1415D2"/>
<path d="M281.267 61.4694H271.182V71.554H281.267V61.4694Z" fill="#1415D2"/>
<path d="M271.182 61.4694H261.098V71.554H271.182V61.4694Z" fill="#1415D2"/>
<path d="M392.656 91.7231H382.572V101.808H392.656V91.7231Z" fill="#1415D2"/>
<path d="M382.572 91.7231H372.487V101.808H382.572V91.7231Z" fill="#1415D2"/>
<path d="M372.487 81.6385H362.402V91.7231L372.487 91.7231L372.487 81.6385Z" fill="#1415D2"/>
<path d="M372.487 91.7231L362.402 91.7231V101.808H372.487V91.7231Z" fill="#1415D2"/>
<path d="M362.402 71.5539H352.317V81.6385L362.402 81.6385L362.402 71.5539Z" fill="#1415D2"/>
<path d="M362.402 81.6385L352.317 81.6385V91.7231H362.402V81.6385Z" fill="#1415D2"/>
<path d="M362.402 91.7231H352.317V101.808H362.402V91.7231Z" fill="#1415D2"/>
<path d="M362.402 61.4694H352.317V71.5539H362.402V61.4694Z" fill="#1415D2"/>
<path d="M352.317 61.4694H342.233V71.554L352.317 71.5539V61.4694Z" fill="#1415D2"/>
<path d="M352.317 91.7231L342.233 91.7231V101.808H352.317V91.7231Z" fill="#1415D2"/>
<path d="M352.317 81.6385L342.233 81.6385V91.7231L352.317 91.7231V81.6385Z" fill="#1415D2"/>
<path d="M352.317 71.5539L342.233 71.554V81.6385L352.317 81.6385V71.5539Z" fill="#1415D2"/>
<path d="M342.233 81.6385H332.148V91.7231L342.233 91.7231V81.6385Z" fill="#1415D2"/>
<path d="M342.233 71.554H332.148V81.6385H342.233V71.554Z" fill="#1415D2"/>
<path d="M342.233 61.4694H332.148V71.554H342.233V61.4694Z" fill="#1415D2"/>
<path d="M332.148 132.52H322.064V142.605H332.148V132.52Z" fill="#1415D2"/>
<path d="M321.606 142.605H311.521V152.689H321.606V142.605Z" fill="#1415D2"/>
<path d="M321.606 132.52H311.521V142.605H321.606V132.52Z" fill="#1415D2"/>
<path d="M311.521 142.605H301.436V152.689H311.521V142.605Z" fill="#1415D2"/>
<path d="M311.521 132.52H301.436V142.605H311.521V132.52Z" fill="#1415D2"/>
<path d="M301.436 132.52H291.352V142.605L301.436 142.605V132.52Z" fill="#1415D2"/>
<path d="M544.383 101.808H534.299V111.892H544.383V101.808Z" fill="#1415D2"/>
<path d="M534.299 101.808H524.214V111.892H534.299V101.808Z" fill="#1415D2"/>
<path d="M524.214 101.808H514.13V111.892H524.214V101.808Z" fill="#1415D2"/>
<path d="M524.214 91.7231H514.13V101.808H524.214L524.214 91.7231Z" fill="#1415D2"/>
<path d="M514.13 101.808H504.045V111.892H514.13V101.808Z" fill="#1415D2"/>
<path d="M504.045 91.7231H493.96V101.808L504.045 101.808L504.045 91.7231Z" fill="#1415D2"/>
<path d="M493.96 101.808L483.876 101.808V111.892H493.96L493.96 101.808Z" fill="#1415D2"/>
<path d="M493.96 122.435H483.876V132.52H493.96V122.435Z" fill="#1415D2"/>
<path d="M493.96 112.351H483.876V122.435H493.96V112.351Z" fill="#1415D2"/>
<path d="M483.875 91.7231H473.791V101.808L483.876 101.808L483.875 91.7231Z" fill="#1415D2"/>
<path d="M483.876 122.435H473.791V132.52H483.876V122.435Z" fill="#1415D2"/>
<path d="M483.876 101.808L473.791 101.808V111.892H483.876V101.808Z" fill="#1415D2"/>
<path d="M483.876 112.351H473.791V122.435H483.876V112.351Z" fill="#1415D2"/>
<path d="M402.741 112.351H392.656V122.435H402.741V112.351Z" fill="#1415D2"/>
<path d="M402.741 122.435H392.656V132.52H402.741V122.435Z" fill="#1415D2"/>
<path d="M392.656 132.52L382.572 132.52V142.605H392.656L392.656 132.52Z" fill="#1415D2"/>
<path d="M392.656 122.435L382.572 122.435V132.52L392.656 132.52V122.435Z" fill="#1415D2"/>
<path d="M382.572 132.52H372.487V142.605H382.572V132.52Z" fill="#1415D2"/>
<path d="M382.572 122.435H372.487V132.52H382.572V122.435Z" fill="#1415D2"/>
<path d="M372.487 101.808H362.402V111.892H372.487L372.487 101.808Z" fill="#1415D2"/>
<path d="M372.487 122.435H362.402V132.52L372.487 132.52V122.435Z" fill="#1415D2"/>
<path d="M372.487 132.52L362.402 132.52V142.605H372.487V132.52Z" fill="#1415D2"/>
<path d="M362.402 132.52L352.317 132.52V142.605H362.402V132.52Z" fill="#1415D2"/>
<path d="M352.317 142.605L342.233 142.605V152.689H352.318L352.317 142.605Z" fill="#1415D2"/>
<path d="M352.317 132.52H342.233V142.605L352.317 142.605V132.52Z" fill="#1415D2"/>
<path d="M342.233 132.52H332.148V142.605L342.233 142.605V132.52Z" fill="#1415D2"/>
<path d="M342.233 142.605L332.148 142.605L332.149 152.689H342.233V142.605Z" fill="#1415D2"/>
<path d="M473.333 91.7231H463.248V101.808H473.333V91.7231Z" fill="#1415D2"/>
<path d="M473.333 122.435H463.248V132.52H473.333V122.435Z" fill="#1415D2"/>
<path d="M473.333 112.351H463.248V122.435H473.333V112.351Z" fill="#1415D2"/>
<path d="M473.333 101.808H463.248V111.892H473.333V101.808Z" fill="#1415D2"/>
<path d="M463.248 112.351H453.163V122.435L463.248 122.435V112.351Z" fill="#1415D2"/>
<path d="M463.248 101.808L453.163 101.808V111.892H463.248V101.808Z" fill="#1415D2"/>
<path d="M463.248 91.7231H453.163V101.808L463.248 101.808V91.7231Z" fill="#1415D2"/>
<path d="M453.163 112.351H443.079V122.435H453.163V112.351Z" fill="#1415D2"/>
<path d="M453.163 101.808H443.079V111.892H453.163V101.808Z" fill="#1415D2"/>
<path d="M453.163 91.7231H443.079V101.808H453.163V91.7231Z" fill="#1415D2"/>
<path d="M443.079 112.351H432.995V122.435H443.079V112.351Z" fill="#1415D2"/>
<path d="M443.079 91.7231H432.995V101.808L443.079 101.808V91.7231Z" fill="#1415D2"/>
<path d="M443.079 101.808L432.995 101.808V111.892H443.079V101.808Z" fill="#1415D2"/>
<path d="M432.994 81.6385H422.91V91.7231L432.995 91.7231L432.994 81.6385Z" fill="#1415D2"/>
<path d="M432.995 91.7231L422.91 91.7231V101.808H432.995V91.7231Z" fill="#1415D2"/>
<path d="M432.995 112.351H422.91V122.435H432.995V112.351Z" fill="#1415D2"/>
<path d="M432.995 101.808H422.91V111.892H432.995V101.808Z" fill="#1415D2"/>
<path d="M422.91 81.6385H412.825V91.7231H422.91V81.6385Z" fill="#1415D2"/>
<path d="M422.91 101.808L412.825 101.808V111.892H422.91V101.808Z" fill="#1415D2"/>
<path d="M422.91 91.7231H412.825V101.808L422.91 101.808V91.7231Z" fill="#1415D2"/>
<path d="M422.91 122.435L412.825 122.435V132.52H422.91L422.91 122.435Z" fill="#1415D2"/>
<path d="M422.91 112.351H412.825V122.435L422.91 122.435V112.351Z" fill="#1415D2"/>
<path d="M412.825 112.351H402.741V122.435L412.825 122.435V112.351Z" fill="#1415D2"/>
<path d="M412.825 122.435L402.741 122.435V132.52H412.825V122.435Z" fill="#1415D2"/>
<path d="M261.098 122.435H251.013V132.52H261.098V122.435Z" fill="#1415D2"/>
<path d="M261.098 31.2155H251.013V41.3001H261.098V31.2155Z" fill="#1415D2"/>
<path d="M261.098 132.52H251.013V142.605H261.098V132.52Z" fill="#1415D2"/>
<path d="M261.098 101.808H251.013V111.892H261.098V101.808Z" fill="#1415D2"/>
<path d="M261.098 21.131H251.013V31.2155H261.098V21.131Z" fill="#1415D2"/>
<path d="M261.098 11.0464H251.013V21.131H261.098V11.0464Z" fill="#1415D2"/>
<path d="M261.098 0.961792H251.013V11.0464H261.098V0.961792Z" fill="#1415D2"/>
<path d="M261.098 112.351H251.013V122.435H261.098V112.351Z" fill="#1415D2"/>
<path d="M251.013 0.961792H240.929V11.0464L251.013 11.0464V0.961792Z" fill="#1415D2"/>
<path d="M251.013 132.52L240.929 132.52V142.605H251.013V132.52Z" fill="#1415D2"/>
<path d="M251.013 31.2155H240.929V41.3001H251.013V31.2155Z" fill="#1415D2"/>
<path d="M251.013 101.808H240.929V111.892H251.013V101.808Z" fill="#1415D2"/>
<path d="M251.013 21.131H240.929V31.2155H251.013V21.131Z" fill="#1415D2"/>
<path d="M251.013 11.0464L240.929 11.0464V21.131H251.013V11.0464Z" fill="#1415D2"/>
<path d="M240.929 132.52H230.844V142.605H240.929V132.52Z" fill="#1415D2"/>
<path d="M240.929 101.808H230.844V111.892H240.929V101.808Z" fill="#1415D2"/>
<path d="M240.929 0.961792H230.844V11.0464H240.929V0.961792Z" fill="#1415D2"/>
<path d="M240.929 31.2155H230.844V41.3001H240.929V31.2155Z" fill="#1415D2"/>
<path d="M240.929 21.131H230.844V31.2155H240.929V21.131Z" fill="#1415D2"/>
<path d="M240.929 11.0464H230.844V21.131H240.929V11.0464Z" fill="#1415D2"/>
<path d="M230.844 112.351H220.759V122.435H230.844V112.351Z" fill="#1415D2"/>
<path d="M230.844 21.131H220.759V31.2155L230.844 31.2155V21.131Z" fill="#1415D2"/>
<path d="M230.844 41.3001H220.759V51.3847H230.844L230.844 41.3001Z" fill="#1415D2"/>
<path d="M230.844 31.2155L220.759 31.2155V41.3001H230.844V31.2155Z" fill="#1415D2"/>
<path d="M230.844 11.0464L220.759 11.0464V21.131H230.844V11.0464Z" fill="#1415D2"/>
<path d="M230.844 101.808H220.759V111.892H230.844V101.808Z" fill="#1415D2"/>
<path d="M230.844 0.961792H220.759V11.0464L230.844 11.0464V0.961792Z" fill="#1415D2"/>
<path d="M220.759 101.808H210.675V111.892H220.759V101.808Z" fill="#1415D2"/>
<path d="M220.759 41.3001H210.675V51.3847H220.759V41.3001Z" fill="#1415D2"/>
<path d="M220.759 112.351H210.675V122.435H220.759V112.351Z" fill="#1415D2"/>
<path d="M220.759 31.2155L210.675 31.2155V41.3001H220.759V31.2155Z" fill="#1415D2"/>
<path d="M220.759 21.131H210.675V31.2155L220.759 31.2155V21.131Z" fill="#1415D2"/>
<path d="M220.76 132.52H210.675V142.605H220.76V132.52Z" fill="#1415D2"/>
<path d="M210.675 132.52H200.59V142.605H210.675V132.52Z" fill="#1415D2"/>
<path d="M210.675 41.3001H200.59V51.3847H210.675V41.3001Z" fill="#1415D2"/>
<path d="M210.675 21.131H200.59V31.2155L210.675 31.2155V21.131Z" fill="#1415D2"/>
<path d="M210.675 31.2155L200.59 31.2155V41.3001H210.675V31.2155Z" fill="#1415D2"/>
<path d="M210.675 101.808H200.59V111.892H210.675V101.808Z" fill="#1415D2"/>
<path d="M210.675 112.351H200.59V122.435H210.675V112.351Z" fill="#1415D2"/>
<path d="M200.59 101.808H190.506V111.892H200.59V101.808Z" fill="#1415D2"/>
<path d="M200.59 112.351H190.506V122.435H200.59V112.351Z" fill="#1415D2"/>
<path d="M200.59 132.52H190.506V142.605H200.59V132.52Z" fill="#1415D2"/>
<path d="M200.59 122.435H190.506V132.52H200.59V122.435Z" fill="#1415D2"/>
<path d="M200.59 31.2155L190.506 31.2155V41.3001H200.59V31.2155Z" fill="#1415D2"/>
<path d="M200.59 61.4694H190.506V71.554H200.59V61.4694Z" fill="#1415D2"/>
<path d="M200.59 21.131H190.506V31.2155L200.59 31.2155V21.131Z" fill="#1415D2"/>
<path d="M200.59 41.3001H190.506V51.3847H200.59V41.3001Z" fill="#1415D2"/>
<path d="M48.8629 122.435H38.7783V132.52H48.8629V122.435Z" fill="#1415D2"/>
<path d="M48.8629 112.351H38.7783V122.435H48.8629V112.351Z" fill="#1415D2"/>
<path d="M48.8629 101.808H38.7783V111.892H48.8629V101.808Z" fill="#1415D2"/>
<path d="M48.8629 71.5539H38.7783V81.6385H48.8629V71.5539Z" fill="#1415D2"/>
<path d="M48.8629 81.6385H38.7783V91.7231H48.8629V81.6385Z" fill="#1415D2"/>
<path d="M48.8629 91.7231H38.7783V101.808H48.8629V91.7231Z" fill="#1415D2"/>
<path d="M38.7783 122.435H28.6934V132.52H38.7783V122.435Z" fill="#1415D2"/>
<path d="M38.7783 91.7231L28.6934 91.7231V101.808L38.7783 101.808V91.7231Z" fill="#1415D2"/>
<path d="M38.7783 101.808L28.6934 101.808V111.892H38.7783V101.808Z" fill="#1415D2"/>
<path d="M38.7783 81.6385L28.6934 81.6385V91.7231L38.7783 91.7231V81.6385Z" fill="#1415D2"/>
<path d="M28.6934 122.435H18.609V132.52H28.6934V122.435Z" fill="#1415D2"/>
<path d="M28.6936 112.351H18.609V122.435H28.6934L28.6936 112.351Z" fill="#1415D2"/>
<path d="M28.6934 101.808L18.609 101.808V111.892H28.6934V101.808Z" fill="#1415D2"/>
<path d="M28.6934 81.6385H18.609V91.7231L28.6934 91.7231V81.6385Z" fill="#1415D2"/>
<path d="M18.609 101.808H8.52409V111.892H18.609V101.808Z" fill="#1415D2"/>
<path d="M8.06601 101.808H-2.01858V111.892H8.06601V101.808Z" fill="#1415D2"/>
<path d="M-2.01858 101.808H-12.1035V111.892H-2.01858V101.808Z" fill="#1415D2"/>
<path d="M-2.01892 81.6385H-12.1035V91.7231H-2.01892V81.6385Z" fill="#1415D2"/>
<path d="M-12.1035 101.808H-22.1879V111.892H-12.1035V101.808Z" fill="#1415D2"/>
<path d="M-12.1035 81.6385H-22.1879V91.7231H-12.1035V81.6385Z" fill="#1415D2"/>
<path d="M-12.1035 91.7231H-22.1879V101.808H-12.1035V91.7231Z" fill="#1415D2"/>
<path d="M-22.1879 101.808H-32.2723V111.892H-22.1879V101.808Z" fill="#1415D2"/>
<path d="M-22.1879 91.7231L-32.2723 91.7231V101.808H-22.1879V91.7231Z" fill="#1415D2"/>
<path d="M-32.2725 81.6385H-42.3572V91.7231L-32.2723 91.7231L-32.2725 81.6385Z" fill="#1415D2"/>
<path d="M-32.2723 101.808H-42.3572V111.892H-32.2723V101.808Z" fill="#1415D2"/>
<path d="M-42.3572 101.808H-52.4416V111.892H-42.3572V101.808Z" fill="#1415D2"/>
<path d="M-42.3572 81.6385H-52.4416V91.7231H-42.3572V81.6385Z" fill="#1415D2"/>
<path d="M-42.3572 91.7231H-52.4416V101.808H-42.3572V91.7231Z" fill="#1415D2"/>
<path d="M-52.4416 91.7231L-62.5265 91.7231V101.808L-52.4416 101.808V91.7231Z" fill="#1415D2"/>
<path d="M-52.4416 101.808L-62.5265 101.808V111.892H-52.4416V101.808Z" fill="#1415D2"/>
<path d="M-52.4416 81.6385H-62.5265V91.7231L-52.4416 91.7231V81.6385Z" fill="#1415D2"/>
<path d="M-62.5265 81.6385H-72.6109V91.7231L-62.5265 91.7231V81.6385Z" fill="#1415D2"/>
<path d="M-62.5265 91.7231L-72.6109 91.7231V101.808H-62.5265V91.7231Z" fill="#1415D2"/>
<path d="M332.148 112.351H322.064V122.435H332.148V112.351Z" fill="#1415D2"/>
<path d="M332.148 101.808H322.064V111.892H332.148V101.808Z" fill="#1415D2"/>
<path d="M321.606 101.808H311.521V111.892H321.606V101.808Z" fill="#1415D2"/>
<path d="M311.521 101.808H301.436V111.892H311.521V101.808Z" fill="#1415D2"/>
<path d="M301.436 142.605L291.352 142.605V152.689H301.436V142.605Z" fill="#1415D2"/>
<path d="M291.352 142.605L281.267 142.605V152.689H291.352V142.605Z" fill="#1415D2"/>
<path d="M291.351 101.808H281.267V111.892H291.351V101.808Z" fill="#1415D2"/>
<path d="M281.267 101.808H271.182V111.892H281.267V101.808Z" fill="#1415D2"/>
<path d="M281.267 21.131H271.182V31.2155H281.267V21.131Z" fill="#1415D2"/>
<path d="M281.267 132.52H271.182V142.605L281.267 142.605L281.267 132.52Z" fill="#1415D2"/>
<path d="M271.183 112.351H261.098V122.435L271.183 122.435V112.351Z" fill="#1415D2"/>
<path d="M271.182 21.131H261.098V31.2155L271.182 31.2155V21.131Z" fill="#1415D2"/>
<path d="M271.182 101.808H261.098V111.892H271.182V101.808Z" fill="#1415D2"/>
<path d="M362.402 122.435H352.317V132.52L362.402 132.52V122.435Z" fill="#1415D2"/>
<path d="M362.402 112.351H352.317V122.435H362.402L362.402 112.351Z" fill="#1415D2"/>
<path d="M352.317 122.435H342.233V132.52H352.317V122.435Z" fill="#1415D2"/>
<path d="M342.233 112.351H332.148V122.435L342.233 122.435L342.233 112.351Z" fill="#1415D2"/>
<path d="M190.506 112.351H180.421V122.435H190.506V112.351Z" fill="#1415D2"/>
<path d="M190.506 122.435H180.421V132.52L190.506 132.52V122.435Z" fill="#1415D2"/>
<path d="M190.506 101.808H180.421V111.892H190.506V101.808Z" fill="#1415D2"/>
<path d="M190.506 61.4694H180.421V71.554H190.506V61.4694Z" fill="#1415D2"/>
<path d="M190.506 31.2155H180.421V41.3001H190.506V31.2155Z" fill="#1415D2"/>
<path d="M190.506 71.554H180.421V81.6385H190.505L190.506 71.554Z" fill="#1415D2"/>
<path d="M190.506 41.3001H180.421V51.3847H190.506V41.3001Z" fill="#1415D2"/>
<path d="M190.506 51.3847H180.421V61.4694H190.506V51.3847Z" fill="#1415D2"/>
<path d="M180.421 61.4694H170.336V71.554H180.421V61.4694Z" fill="#1415D2"/>
<path d="M180.421 71.554H170.336V81.6385H180.421V71.554Z" fill="#1415D2"/>
<path d="M180.421 51.3847L170.336 51.3848V61.4694H180.421V51.3847Z" fill="#1415D2"/>
<path d="M180.421 41.3001H170.336V51.3848L180.421 51.3847V41.3001Z" fill="#1415D2"/>
<path d="M180.421 112.351H170.336V122.435H180.421V112.351Z" fill="#1415D2"/>
<path d="M180.421 101.808H170.336V111.892H180.421V101.808Z" fill="#1415D2"/>
<path d="M170.336 71.554L160.252 71.5539V81.6385H170.336V71.554Z" fill="#1415D2"/>
<path d="M170.336 51.3848H160.252V61.4694L170.336 61.4694V51.3848Z" fill="#1415D2"/>
<path d="M170.336 112.351H160.252V122.435H170.336V112.351Z" fill="#1415D2"/>
<path d="M170.337 31.2155H160.252V41.3001H170.336L170.337 31.2155Z" fill="#1415D2"/>
<path d="M170.336 41.3001H160.252V51.3848H170.336V41.3001Z" fill="#1415D2"/>
<path d="M170.336 61.4694L160.252 61.4694V71.5539L170.336 71.554V61.4694Z" fill="#1415D2"/>
<path d="M170.336 101.808H160.252V111.892H170.336V101.808Z" fill="#1415D2"/>
<path d="M159.793 122.435H149.709V132.52H159.793V122.435Z" fill="#1415D2"/>
<path d="M159.793 112.351H149.709V122.435H159.793V112.351Z" fill="#1415D2"/>
<path d="M159.793 51.3848H149.709V61.4694H159.793V51.3848Z" fill="#1415D2"/>
<path d="M159.793 71.5539H149.709V81.6385H159.793V71.5539Z" fill="#1415D2"/>
<path d="M159.793 91.7231H149.709V101.808H159.793V91.7231Z" fill="#1415D2"/>
<path d="M159.793 61.4694H149.709V71.5539H159.793V61.4694Z" fill="#1415D2"/>
<path d="M159.793 101.808H149.709V111.892H159.793V101.808Z" fill="#1415D2"/>
<path d="M159.793 41.3001H149.709V51.3848H159.793V41.3001Z" fill="#1415D2"/>
<path d="M159.793 31.2155H149.709V41.3001H159.793V31.2155Z" fill="#1415D2"/>
<path d="M149.709 51.3848H139.624V61.4694H149.709V51.3848Z" fill="#1415D2"/>
<path d="M149.709 122.435H139.624V132.52H149.709V122.435Z" fill="#1415D2"/>
<path d="M149.709 41.3001H139.624V51.3848H149.709V41.3001Z" fill="#1415D2"/>
<path d="M149.709 31.2155H139.624V41.3001H149.709V31.2155Z" fill="#1415D2"/>
<path d="M149.709 112.351H139.624V122.435H149.709V112.351Z" fill="#1415D2"/>
<path d="M149.709 61.4694H139.624V71.554L149.709 71.5539V61.4694Z" fill="#1415D2"/>
<path d="M149.709 91.7231H139.624V101.808H149.709V91.7231Z" fill="#1415D2"/>
<path d="M149.709 71.5539L139.624 71.554V81.6385H149.709V71.5539Z" fill="#1415D2"/>
<path d="M139.624 41.3001H129.539V51.3847L139.624 51.3848V41.3001Z" fill="#1415D2"/>
<path d="M139.624 61.4694L129.539 61.4694V71.554H139.624V61.4694Z" fill="#1415D2"/>
<path d="M139.624 132.52L129.539 132.52V142.605H139.624L139.624 132.52Z" fill="#1415D2"/>
<path d="M139.624 91.7231H129.539V101.808H139.624V91.7231Z" fill="#1415D2"/>
<path d="M139.624 81.6385L129.539 81.6385V91.7231H139.624V81.6385Z" fill="#1415D2"/>
<path d="M139.624 31.2155H129.539V41.3001H139.624V31.2155Z" fill="#1415D2"/>
<path d="M139.624 122.435H129.539V132.52L139.624 132.52V122.435Z" fill="#1415D2"/>
<path d="M139.624 112.351H129.539V122.435H139.624V112.351Z" fill="#1415D2"/>
<path d="M129.539 112.351H119.455V122.435L129.539 122.435V112.351Z" fill="#1415D2"/>
<path d="M129.539 122.435L119.455 122.435V132.52L129.539 132.52V122.435Z" fill="#1415D2"/>
<path d="M129.539 61.4694H119.455V71.554H129.539V61.4694Z" fill="#1415D2"/>
<path d="M129.539 81.6385H119.455V91.7231L129.539 91.7231V81.6385Z" fill="#1415D2"/>
<path d="M129.539 71.554H119.455V81.6385H129.539V71.554Z" fill="#1415D2"/>
<path d="M119.455 61.4694H109.37V71.554H119.455V61.4694Z" fill="#1415D2"/>
<path d="M119.455 81.6385H109.37V91.7231H119.455V81.6385Z" fill="#1415D2"/>
<path d="M119.455 91.7231H109.37V101.808H119.455L119.455 91.7231Z" fill="#1415D2"/>
<path d="M119.455 122.435L109.37 122.435V132.52H119.455V122.435Z" fill="#1415D2"/>
<path d="M119.455 71.554H109.37V81.6385H119.455V71.554Z" fill="#1415D2"/>
<path d="M119.455 112.351H109.37V122.435L119.455 122.435V112.351Z" fill="#1415D2"/>
<path d="M109.37 122.435H99.2857V132.52H109.37V122.435Z" fill="#1415D2"/>
<path d="M109.37 112.351H99.2857V122.435H109.37V112.351Z" fill="#1415D2"/>
<path d="M109.37 61.4694H99.2857V71.554H109.37V61.4694Z" fill="#1415D2"/>
<path d="M109.37 132.52H99.2857V142.605H109.37L109.37 132.52Z" fill="#1415D2"/>
<path d="M99.2857 61.4694H89.2013V71.554H99.2857V61.4694Z" fill="#1415D2"/>
<path d="M99.2857 112.351H89.2013V122.435L99.2857 122.435V112.351Z" fill="#1415D2"/>
<path d="M99.2857 122.435L89.2013 122.435V132.52H99.2857V122.435Z" fill="#1415D2"/>
<path d="M99.2857 132.52H89.2013V142.605H99.2857V132.52Z" fill="#1415D2"/>
<path d="M99.2859 101.808H89.2013V111.892H99.2859V101.808Z" fill="#1415D2"/>
<path d="M89.2011 81.6385H79.1164V91.7231H89.2011V81.6385Z" fill="#1415D2"/>
<path d="M89.2011 91.7231H79.1164V101.808L89.2013 101.808L89.2011 91.7231Z" fill="#1415D2"/>
<path d="M89.2013 71.554L79.1164 71.5539V81.6385H89.2011L89.2013 71.554Z" fill="#1415D2"/>
<path d="M89.2013 61.4694H79.1164V71.5539L89.2013 71.554V61.4694Z" fill="#1415D2"/>
<path d="M89.2013 101.808L79.1164 101.808V111.892H89.2013V101.808Z" fill="#1415D2"/>
<path d="M89.2011 51.3848H79.1164V61.4694H89.2013L89.2011 51.3848Z" fill="#1415D2"/>
<path d="M89.2013 112.351H79.1164V122.435H89.2013V112.351Z" fill="#1415D2"/>
<path d="M79.1164 71.5539H69.032V81.6385L79.1164 81.6385V71.5539Z" fill="#1415D2"/>
<path d="M79.1164 81.6385L69.032 81.6385V91.7231H79.1164V81.6385Z" fill="#1415D2"/>
<path d="M79.1164 101.808L69.032 101.808V111.892H79.1164V101.808Z" fill="#1415D2"/>
<path d="M79.1164 51.3848H69.032V61.4694L79.1164 61.4694V51.3848Z" fill="#1415D2"/>
<path d="M79.1164 112.351H69.032V122.435H79.1164V112.351Z" fill="#1415D2"/>
<path d="M79.1164 91.7231H69.032V101.808L79.1164 101.808V91.7231Z" fill="#1415D2"/>
<path d="M69.032 101.808H58.9471V111.892H69.032V101.808Z" fill="#1415D2"/>
<path d="M69.032 81.6385L58.9471 81.6385V91.7231H69.032V81.6385Z" fill="#1415D2"/>
<path d="M69.032 112.351H58.9471V122.435H69.032V112.351Z" fill="#1415D2"/>
<path d="M69.032 71.5539H58.9471V81.6385L69.032 81.6385V71.5539Z" fill="#1415D2"/>
<path d="M69.032 51.3848H58.9471V61.4694H69.032V51.3848Z" fill="#1415D2"/>
<path d="M69.032 61.4694H58.9471V71.5539H69.032V61.4694Z" fill="#1415D2"/>
<path d="M58.9471 81.6385L48.8629 81.6385V91.7231H58.9471V81.6385Z" fill="#1415D2"/>
<path d="M58.9471 112.351H48.8629V122.435L58.9471 122.435V112.351Z" fill="#1415D2"/>
<path d="M58.9471 71.5539H48.8629V81.6385L58.9471 81.6385V71.5539Z" fill="#1415D2"/>
<path d="M58.9471 61.4694L48.8627 61.4694L48.8629 71.5539H58.9471V61.4694Z" fill="#1415D2"/>
<path d="M58.9471 101.808H48.8629V111.892H58.9471V101.808Z" fill="#1415D2"/>
<path d="M58.9471 91.7231H48.8629V101.808H58.9471V91.7231Z" fill="#1415D2"/>
</svg>
