<svg width="315" height="142" viewBox="0 0 315 142" fill="none" xmlns="http://www.w3.org/2000/svg">
<path d="M314.248 39.5H306.378V47.37H314.248V39.5Z" fill="white"/>
<path d="M306.57 39.5H298.7V47.37H306.57V39.5Z" fill="white"/>
<path d="M298.7 39.5H290.83V47.37H298.7V39.5Z" fill="white"/>
<path d="M290.83 39.5H282.96V47.37H290.83V39.5Z" fill="white"/>
<path d="M290.83 31.6301H282.96V39.5H290.83L290.83 31.6301Z" fill="white"/>
<path d="M282.96 39.5H275.09V47.37H282.96V39.5Z" fill="white"/>
<path d="M282.96 31.6301H275.09V39.5H282.96V31.6301Z" fill="white"/>
<path d="M275.09 39.5H267.22V47.37H275.09V39.5Z" fill="white"/>
<path d="M275.09 23.7601H267.22V31.6301L275.09 31.6301L275.09 23.7601Z" fill="white"/>
<path d="M275.09 31.6301L267.22 31.6301V39.5H275.09V31.6301Z" fill="white"/>
<path d="M267.22 16.0821H259.35V23.952H267.22V16.0821Z" fill="white"/>
<path d="M267.22 39.5H259.35V47.37H267.22V39.5Z" fill="white"/>
<path d="M267.22 31.6301L259.35 31.6301V39.5H267.22V31.6301Z" fill="white"/>
<path d="M267.22 23.7601H259.35V31.6301L267.22 31.6301V23.7601Z" fill="white"/>
<path d="M259.35 39.5H251.48V47.37H259.35V39.5Z" fill="white"/>
<path d="M259.35 16.0821H251.48V23.952H259.35V16.0821Z" fill="white"/>
<path d="M259.35 31.6301H251.48V39.5H259.35V31.6301Z" fill="white"/>
<path d="M251.48 8.21209H243.61V16.0821L251.48 16.0821L251.48 8.21209Z" fill="white"/>
<path d="M251.48 39.5H243.61V47.37H251.48V39.5Z" fill="white"/>
<path d="M251.48 31.6301H243.61V39.5H251.48V31.6301Z" fill="white"/>
<path d="M251.48 23.7601H243.61V31.6301H251.48L251.48 23.7601Z" fill="white"/>
<path d="M251.48 16.0821L243.61 16.0821V23.952H251.48V16.0821Z" fill="white"/>
<path d="M251.48 0.342163H243.61V8.21209H251.48V0.342163Z" fill="white"/>
<path d="M243.802 16.0821H235.932V23.952H243.802V16.0821Z" fill="white"/>
<path d="M243.802 8.21209H235.932V16.0821H243.802V8.21209Z" fill="white"/>
<path d="M243.802 0.342163H235.932V8.21209H243.802V0.342163Z" fill="white"/>
<path d="M243.802 31.6301H235.932V39.5H243.802V31.6301Z" fill="white"/>
<path d="M243.802 23.7601H235.932V31.6301H243.802V23.7601Z" fill="white"/>
<path d="M235.932 23.7601H228.062V31.6301L235.932 31.6301V23.7601Z" fill="white"/>
<path d="M235.932 31.6301L228.062 31.6301V39.5H235.932V31.6301Z" fill="white"/>
<path d="M235.932 8.21209H228.062V16.0821L235.932 16.0821V8.21209Z" fill="white"/>
<path d="M235.932 16.0821L228.062 16.0821V23.952H235.932V16.0821Z" fill="white"/>
<path d="M235.932 39.5H228.062V47.37H235.932L235.932 39.5Z" fill="white"/>
<path d="M228.062 31.6301L220.192 31.6301V39.5H228.062V31.6301Z" fill="white"/>
<path d="M228.062 23.7601H220.192V31.6301L228.062 31.6301V23.7601Z" fill="white"/>
<path d="M228.062 16.0821L220.192 16.0821V23.952H228.062V16.0821Z" fill="white"/>
<path d="M228.062 8.21209H220.192V16.0821L228.062 16.0821V8.21209Z" fill="white"/>
<path d="M220.192 39.5H212.322V47.37H220.192L220.192 39.5Z" fill="white"/>
<path d="M220.192 16.0821H212.322V23.952H220.192V16.0821Z" fill="white"/>
<path d="M220.192 31.6301H212.322V39.5H220.192V31.6301Z" fill="white"/>
<path d="M220.192 8.21209H212.322V16.0821H220.192V8.21209Z" fill="white"/>
<path d="M220.192 23.7601H212.322V31.6301H220.192V23.7601Z" fill="white"/>
<path d="M212.322 23.7601H204.453V31.6301L212.322 31.6301V23.7601Z" fill="white"/>
<path d="M212.322 31.6301L204.453 31.6301V39.5H212.322V31.6301Z" fill="white"/>
<path d="M212.322 39.5H204.453V47.37H212.322V39.5Z" fill="white"/>
<path d="M212.322 16.0821H204.453V23.952H212.322V16.0821Z" fill="white"/>
<path d="M204.453 39.5H196.582V47.37H204.453V39.5Z" fill="white"/>
<path d="M204.453 23.7601H196.582V31.6301H204.453V23.7601Z" fill="white"/>
<path d="M196.582 39.5H188.712V47.37H196.582V39.5Z" fill="white"/>
<path d="M196.582 23.7601H188.712V31.6301H196.582V23.7601Z" fill="white"/>
<path d="M196.582 16.0821H188.712V23.952H196.582V16.0821Z" fill="white"/>
<path d="M188.712 39.5H180.842V47.37H188.712V39.5Z" fill="white"/>
<path d="M188.712 23.7601H180.842V31.6301H188.712V23.7601Z" fill="white"/>
<path d="M188.712 16.0821H180.842V23.952H188.712V16.0821Z" fill="white"/>
<path d="M188.712 31.6301H180.842V39.5H188.712V31.6301Z" fill="white"/>
<path d="M181.034 23.7601H173.165V31.6301H181.034V23.7601Z" fill="white"/>
<path d="M181.034 39.5H173.165V47.37H181.034V39.5Z" fill="white"/>
<path d="M181.034 31.6301H173.165V39.5H181.034V31.6301Z" fill="white"/>
<path d="M181.034 47.37H173.165V55.2399H181.034V47.37Z" fill="white"/>
<path d="M181.034 16.0821H173.165V23.952H181.034V16.0821Z" fill="white"/>
<path d="M173.165 31.6301L165.295 31.6301V39.5H173.165V31.6301Z" fill="white"/>
<path d="M173.165 23.7601H165.295V31.6301L173.165 31.6301V23.7601Z" fill="white"/>
<path d="M173.165 39.5H165.295V47.37H173.165V39.5Z" fill="white"/>
<path d="M173.165 47.37H165.295V55.2399H173.165V47.37Z" fill="white"/>
<path d="M165.295 47.37H157.425V55.2399H165.295V47.37Z" fill="white"/>
<path d="M165.295 31.6301H157.425V39.5H165.295V31.6301Z" fill="white"/>
<path d="M165.295 39.5H157.425V47.37H165.295V39.5Z" fill="white"/>
<path d="M157.425 39.5H149.554V47.37H157.425V39.5Z" fill="white"/>
<path d="M149.554 39.5H141.685V47.37H149.554V39.5Z" fill="white"/>
<path d="M275.09 133.748H267.22V141.618H275.09V133.748Z" fill="white"/>
<path d="M267.22 133.748H259.35V141.618H267.22V133.748Z" fill="white"/>
<path d="M259.35 133.748H251.48V141.618H259.35V133.748Z" fill="white"/>
<path d="M251.48 133.748H243.61V141.618H251.48V133.748Z" fill="white"/>
<path d="M243.802 133.748H235.932V141.618H243.802V133.748Z" fill="white"/>
<path d="M235.932 133.748H228.062V141.618H235.932V133.748Z" fill="white"/>
<path d="M235.932 125.878H228.062V133.748H235.932L235.932 125.878Z" fill="white"/>
<path d="M228.062 133.748H220.192V141.618H228.062V133.748Z" fill="white"/>
<path d="M228.062 125.878H220.192V133.748H228.062V125.878Z" fill="white"/>
<path d="M220.192 133.748H212.322V141.618H220.192V133.748Z" fill="white"/>
<path d="M212.322 133.748H204.453V141.618H212.322V133.748Z" fill="white"/>
<path d="M212.323 125.878H204.453V133.748H212.322L212.323 125.878Z" fill="white"/>
<path d="M212.323 118.008H204.453V125.878H212.323V118.008Z" fill="white"/>
<path d="M204.453 118.008H196.582V125.878L204.453 125.878V118.008Z" fill="white"/>
<path d="M204.453 125.878L196.582 125.878V133.748H204.453V125.878Z" fill="white"/>
<path d="M204.453 133.748H196.582V141.618H204.453V133.748Z" fill="white"/>
<path d="M196.582 125.878L188.712 125.878V133.748H196.582V125.878Z" fill="white"/>
<path d="M196.582 133.748H188.712V141.618H196.582V133.748Z" fill="white"/>
<path d="M196.582 118.008H188.712V125.878L196.582 125.878V118.008Z" fill="white"/>
<path d="M188.712 133.748H180.842V141.618H188.712V133.748Z" fill="white"/>
<path d="M181.034 125.878H173.165V133.748H181.034V125.878Z" fill="white"/>
<path d="M181.034 133.748H173.165V141.618H181.034V133.748Z" fill="white"/>
<path d="M173.165 125.878H165.295V133.748H173.165V125.878Z" fill="white"/>
<path d="M165.295 125.878H157.425V133.748H165.295V125.878Z" fill="white"/>
<path d="M157.425 125.878H149.554V133.748H157.425V125.878Z" fill="white"/>
<path d="M149.554 125.878H141.685V133.748H149.554V125.878Z" fill="white"/>
<path d="M141.685 125.878H133.815V133.748H141.685V125.878Z" fill="white"/>
<path d="M133.815 125.878H125.945V133.748H133.815V125.878Z" fill="white"/>
<path d="M125.945 125.878H118.075V133.748H125.945V125.878Z" fill="white"/>
<path d="M118.267 125.878H110.397V133.748H118.267V125.878Z" fill="white"/>
<path d="M275.09 94.3979H267.22V102.268H275.09V94.3979Z" fill="white"/>
<path d="M267.22 94.3979H259.35V102.268H267.22V94.3979Z" fill="white"/>
<path d="M259.35 94.3979H251.48V102.268H259.35V94.3979Z" fill="white"/>
<path d="M251.48 102.268L243.61 102.268V110.138H251.48L251.48 102.268Z" fill="white"/>
<path d="M251.48 94.3979H243.61V102.268L251.48 102.268V94.3979Z" fill="white"/>
<path d="M243.802 102.268H235.932V110.138H243.802V102.268Z" fill="white"/>
<path d="M243.802 94.3979H235.932V102.268H243.802V94.3979Z" fill="white"/>
<path d="M235.932 94.3979H228.062V102.268L235.932 102.268V94.3979Z" fill="white"/>
<path d="M235.932 102.268L228.062 102.268V110.138H235.932V102.268Z" fill="white"/>
<path d="M228.062 102.268L220.192 102.268V110.138H228.062V102.268Z" fill="white"/>
<path d="M228.062 94.3979H220.192V102.268L228.062 102.268V94.3979Z" fill="white"/>
<path d="M220.192 102.268H212.322V110.138H220.192V102.268Z" fill="white"/>
<path d="M220.192 94.3979H212.322V102.268H220.192V94.3979Z" fill="white"/>
<path d="M212.322 102.268H204.453V110.138H212.322V102.268Z" fill="white"/>
<path d="M212.322 110.138H204.453V118.008H212.323L212.322 110.138Z" fill="white"/>
<path d="M212.322 94.3979H204.453V102.268H212.322V94.3979Z" fill="white"/>
<path d="M204.453 110.138H196.582V118.008H204.453V110.138Z" fill="white"/>
<path d="M204.453 94.3979H196.582V102.268L204.453 102.268V94.3979Z" fill="white"/>
<path d="M196.582 110.138H188.712V118.008H196.582V110.138Z" fill="white"/>
<path d="M196.582 102.268L188.712 102.268V110.138H196.582V102.268Z" fill="white"/>
<path d="M196.582 94.3979H188.712V102.268L196.582 102.268V94.3979Z" fill="white"/>
<path d="M188.712 118.008H180.842V125.878L188.712 125.878V118.008Z" fill="white"/>
<path d="M188.712 110.138H180.842V118.008H188.712V110.138Z" fill="white"/>
<path d="M188.712 94.3979H180.842V102.268L188.712 102.268V94.3979Z" fill="white"/>
<path d="M181.034 110.138H173.165V118.008H181.034V110.138Z" fill="white"/>
<path d="M181.034 94.3979H173.165V102.268H181.034V94.3979Z" fill="white"/>
<path d="M181.034 118.008H173.165V125.878H181.034V118.008Z" fill="white"/>
<path d="M173.165 110.138H165.295V118.008H173.165V110.138Z" fill="white"/>
<path d="M173.165 118.008H165.295V125.878H173.165V118.008Z" fill="white"/>
<path d="M165.295 110.138H157.425V118.008H165.295V110.138Z" fill="white"/>
<path d="M165.295 94.3979H157.425V102.268H165.295V94.3979Z" fill="white"/>
<path d="M165.295 118.008H157.425V125.878H165.295V118.008Z" fill="white"/>
<path d="M165.295 102.268H157.425V110.138H165.295L165.295 102.268Z" fill="white"/>
<path d="M157.425 102.268L149.554 102.268V110.138H157.425V102.268Z" fill="white"/>
<path d="M157.425 118.008H149.554V125.878H157.425V118.008Z" fill="white"/>
<path d="M157.425 94.3979H149.554V102.268L157.425 102.268V94.3979Z" fill="white"/>
<path d="M157.425 110.138H149.554V118.008H157.425V110.138Z" fill="white"/>
<path d="M149.554 110.138H141.685V118.008H149.554V110.138Z" fill="white"/>
<path d="M149.554 94.3979H141.685V102.268L149.554 102.268V94.3979Z" fill="white"/>
<path d="M149.554 118.008H141.685V125.878H149.554V118.008Z" fill="white"/>
<path d="M149.554 102.268L141.685 102.268V110.138H149.554V102.268Z" fill="white"/>
<path d="M141.685 110.138H133.815V118.008H141.685V110.138Z" fill="white"/>
<path d="M141.685 118.008H133.815V125.878H141.685V118.008Z" fill="white"/>
<path d="M141.685 102.268L133.815 102.268V110.138H141.685V102.268Z" fill="white"/>
<path d="M141.685 94.3979H133.815V102.268L141.685 102.268V94.3979Z" fill="white"/>
<path d="M141.685 86.5279H133.815V94.3979H141.685L141.685 86.5279Z" fill="white"/>
<path d="M133.815 102.268H125.945V110.138H133.815V102.268Z" fill="white"/>
<path d="M133.815 118.008H125.945V125.878H133.815V118.008Z" fill="white"/>
<path d="M133.815 94.3979H125.945V102.268H133.815V94.3979Z" fill="white"/>
<path d="M133.815 78.8499H125.945V86.7199H133.815V78.8499Z" fill="white"/>
<path d="M133.815 86.5279H125.945V94.3979H133.815V86.5279Z" fill="white"/>
<path d="M125.945 78.8499H118.075V86.7199H125.945V78.8499Z" fill="white"/>
<path d="M125.945 86.5279H118.075V94.3979H125.945V86.5279Z" fill="white"/>
<path d="M125.945 118.008H118.075V125.878H125.945V118.008Z" fill="white"/>
<path d="M125.945 70.9799H118.075V78.8499H125.945L125.945 70.9799Z" fill="white"/>
<path d="M125.945 102.268H118.075V110.138H125.945V102.268Z" fill="white"/>
<path d="M125.945 110.138H118.075V118.008H125.945V110.138Z" fill="white"/>
<path d="M125.945 94.3979H118.075V102.268H125.945V94.3979Z" fill="white"/>
<path d="M118.267 102.268H110.397V110.138H118.267V102.268Z" fill="white"/>
<path d="M118.267 78.8499H110.397V86.7199H118.267V78.8499Z" fill="white"/>
<path d="M118.267 118.008H110.397V125.878H118.267V118.008Z" fill="white"/>
<path d="M118.267 70.9799H110.397V78.8499H118.267V70.9799Z" fill="white"/>
<path d="M118.267 94.3979H110.397V102.268H118.267V94.3979Z" fill="white"/>
<path d="M110.397 102.268H102.527V110.138H110.397V102.268Z" fill="white"/>
<path d="M110.397 110.138H102.527V118.008H110.397V110.138Z" fill="white"/>
<path d="M110.397 78.8499H102.527V86.7199H110.397V78.8499Z" fill="white"/>
<path d="M110.397 118.008H102.527V125.878L110.397 125.878V118.008Z" fill="white"/>
<path d="M110.397 70.9799H102.527V78.8499H110.397V70.9799Z" fill="white"/>
<path d="M110.397 86.5279H102.527V94.3979H110.397L110.397 86.5279Z" fill="white"/>
<path d="M110.397 94.3979H102.527V102.268H110.397V94.3979Z" fill="white"/>
<path d="M102.527 118.008H94.6566V125.878H102.527V118.008Z" fill="white"/>
<path d="M102.527 86.5279H94.6566V94.3979H102.527V86.5279Z" fill="white"/>
<path d="M102.527 110.138H94.6566V118.008H102.527V110.138Z" fill="white"/>
<path d="M102.527 102.268H94.6566V110.138H102.527V102.268Z" fill="white"/>
<path d="M102.527 70.9799H94.6566V78.8499H102.527V70.9799Z" fill="white"/>
<path d="M102.527 94.3979H94.6566V102.268H102.527V94.3979Z" fill="white"/>
<path d="M102.527 78.8499H94.6566V86.7199H102.527V78.8499Z" fill="white"/>
<path d="M94.6566 102.268H86.7867V110.138H94.6566V102.268Z" fill="white"/>
<path d="M94.6566 118.008H86.7867V125.878H94.6566V118.008Z" fill="white"/>
<path d="M94.6566 94.3979H86.7867V102.268H94.6566V94.3979Z" fill="white"/>
<path d="M94.6566 86.5279H86.7867V94.3979H94.6566V86.5279Z" fill="white"/>
<path d="M94.6566 110.138H86.7867V118.008H94.6566V110.138Z" fill="white"/>
<path d="M94.6567 63.1099H86.7867V70.9799L94.6566 70.9799L94.6567 63.1099Z" fill="white"/>
<path d="M94.6567 55.24H86.7867V63.1099H94.6567V55.24Z" fill="white"/>
<path d="M94.6566 78.8499H86.7867V86.7199H94.6566V78.8499Z" fill="white"/>
<path d="M94.6566 70.9799L86.7867 70.9799V78.8499H94.6566V70.9799Z" fill="white"/>
<path d="M86.7867 94.3979H78.9168V102.268L86.7867 102.268V94.3979Z" fill="white"/>
<path d="M86.7867 102.268L78.9168 102.268V110.138H86.7867V102.268Z" fill="white"/>
<path d="M86.7867 86.5279H78.9168V94.3979H86.7867V86.5279Z" fill="white"/>
<path d="M86.7867 78.8499H78.9168V86.7199H86.7867V78.8499Z" fill="white"/>
<path d="M86.7867 125.878L78.9168 125.878V133.748H86.7867L86.7867 125.878Z" fill="white"/>
<path d="M86.7867 118.008H78.9168V125.878L86.7867 125.878V118.008Z" fill="white"/>
<path d="M86.7867 70.9799L78.9168 70.9799V78.8499H86.7867V70.9799Z" fill="white"/>
<path d="M86.7867 63.1099H78.9168V70.9799L86.7867 70.9799V63.1099Z" fill="white"/>
<path d="M86.7867 55.24H78.9168V63.1099H86.7867V55.24Z" fill="white"/>
<path d="M78.9168 78.8499H71.0469V86.7199H78.9168V78.8499Z" fill="white"/>
<path d="M78.9168 70.9799H71.0469V78.8499H78.9168V70.9799Z" fill="white"/>
<path d="M78.9168 55.24H71.0469V63.1099H78.9168V55.24Z" fill="white"/>
<path d="M78.9168 63.1099H71.0469V70.9799H78.9168V63.1099Z" fill="white"/>
<path d="M78.9168 125.878H71.0469V133.748H78.9168V125.878Z" fill="white"/>
<path d="M78.9168 102.268L71.0469 102.268V110.138H78.9168V102.268Z" fill="white"/>
<path d="M78.9168 118.008H71.0469V125.878H78.9168V118.008Z" fill="white"/>
<path d="M71.0469 78.8499H63.1767V86.7199H71.0469V78.8499Z" fill="white"/>
<path d="M71.0469 125.878H63.1767V133.748H71.0469V125.878Z" fill="white"/>
<path d="M71.0469 63.1099H63.1767V70.9799L71.0469 70.9799V63.1099Z" fill="white"/>
<path d="M71.0469 102.268H63.1767V110.138H71.0469V102.268Z" fill="white"/>
<path d="M71.0469 118.008H63.1767V125.878H71.0469V118.008Z" fill="white"/>
<path d="M71.0469 70.9799L63.1767 70.9799V78.8499H71.0469V70.9799Z" fill="white"/>
<path d="M63.1767 102.268H55.3068V110.138H63.1767V102.268Z" fill="white"/>
<path d="M63.1767 86.5279H55.3068V94.3979H63.1767V86.5279Z" fill="white"/>
<path d="M63.1767 70.9799L55.3068 70.9799V78.8499H63.1767V70.9799Z" fill="white"/>
<path d="M63.1767 63.1099H55.3068V70.9799L63.1767 70.9799V63.1099Z" fill="white"/>
<path d="M63.1767 78.8499H55.3068V86.7199H63.1767V78.8499Z" fill="white"/>
<path d="M63.1767 125.878H55.3068V133.748H63.1767V125.878Z" fill="white"/>
<path d="M63.1767 118.008H55.3068V125.878H63.1767V118.008Z" fill="white"/>
<path d="M63.1767 94.3979H55.3068V102.268H63.1767L63.1767 94.3979Z" fill="white"/>
<path d="M55.4988 94.3979H47.6288V102.268H55.4988V94.3979Z" fill="white"/>
<path d="M55.4988 86.5279H47.6288V94.3979H55.4988V86.5279Z" fill="white"/>
<path d="M55.4988 78.8499H47.6288V86.7199H55.4988V78.8499Z" fill="white"/>
<path d="M55.4988 70.9799H47.6288V78.8499H55.4988V70.9799Z" fill="white"/>
<path d="M55.4988 110.138H47.6288V118.008H55.4988V110.138Z" fill="white"/>
<path d="M55.4988 118.008H47.6288V125.878H55.4988V118.008Z" fill="white"/>
<path d="M55.4988 125.878H47.6288V133.748H55.4988V125.878Z" fill="white"/>
<path d="M55.4988 102.268H47.6288V110.138H55.4988V102.268Z" fill="white"/>
<path d="M47.6288 86.5279H39.7589V94.3979H47.6288V86.5279Z" fill="white"/>
<path d="M47.6288 102.268L39.7589 102.268V110.138H47.6288V102.268Z" fill="white"/>
<path d="M47.6288 94.3979H39.7589V102.268L47.6288 102.268V94.3979Z" fill="white"/>
<path d="M47.6288 125.878L39.7589 125.878V133.748H47.6288V125.878Z" fill="white"/>
<path d="M47.6288 118.008H39.7589V125.878L47.6288 125.878V118.008Z" fill="white"/>
<path d="M47.6288 110.138H39.7589V118.008H47.6288V110.138Z" fill="white"/>
<path d="M39.7589 110.138H31.8889V118.008H39.7589V110.138Z" fill="white"/>
<path d="M39.7589 125.878H31.8889V133.748H39.7589V125.878Z" fill="white"/>
<path d="M39.7589 102.268H31.8889V110.138H39.7589V102.268Z" fill="white"/>
<path d="M39.7589 118.008H31.8889V125.878H39.7589V118.008Z" fill="white"/>
<path d="M39.7589 94.3979H31.8889V102.268H39.7589V94.3979Z" fill="white"/>
<path d="M39.7589 86.5279H31.8889V94.3979H39.7589V86.5279Z" fill="white"/>
<path d="M31.8889 118.008H24.019V125.878L31.8889 125.878V118.008Z" fill="white"/>
<path d="M31.8889 125.878L24.019 125.878V133.748H31.8889V125.878Z" fill="white"/>
<path d="M31.8889 94.3979H24.019V102.268L31.8889 102.268V94.3979Z" fill="white"/>
<path d="M31.8889 110.138H24.019V118.008H31.8889V110.138Z" fill="white"/>
<path d="M31.8889 102.268L24.019 102.268V110.138H31.8889V102.268Z" fill="white"/>
<path d="M31.8889 86.5279H24.019V94.3979H31.8889V86.5279Z" fill="white"/>
<path d="M24.019 110.138H16.1489V118.008H24.019V110.138Z" fill="white"/>
<path d="M24.019 86.5279H16.1489V94.3979H24.019V86.5279Z" fill="white"/>
<path d="M16.1489 102.268H8.27893V110.138H16.1489L16.1489 102.268Z" fill="white"/>
<path d="M16.1489 110.138H8.27893V118.008H16.1489V110.138Z" fill="white"/>
<path d="M8.27893 110.138H0.408997V118.008H8.27893V110.138Z" fill="white"/>
<path d="M8.27893 102.268H0.408997V110.138H8.27893V102.268Z" fill="white"/>
<path d="M24.019 102.268L16.1489 102.268L16.1489 110.138H24.019V102.268Z" fill="white"/>
</svg>
