<svg width="52" height="53" viewBox="0 0 52 53" fill="none" xmlns="http://www.w3.org/2000/svg">
<path d="M37.8098 42.6567H31.9434V48.5002H37.8098V42.6567Z" fill="white"/>
<path d="M32.1607 42.6567H26.2943V48.5002H32.1607V42.6567Z" fill="white"/>
<path d="M26.2943 42.6567H20.4277V48.5002H26.2943V42.6567Z" fill="white"/>
<path d="M20.645 42.6567H14.7786V48.5002H20.645V42.6567Z" fill="white"/>
<path d="M37.8098 19.7155H31.9434V25.559H37.8098V19.7155Z" fill="white"/>
<path d="M32.1607 25.559H26.2943V31.4025H32.1607V25.559Z" fill="white"/>
<path d="M32.1607 14.0884H26.2943V19.9319H32.1607V14.0884Z" fill="white"/>
<path d="M26.2941 31.186H20.4277V37.0295H26.2941V31.186Z" fill="white"/>
<path d="M26.2943 14.0884H20.4277V19.9319H26.2943V14.0884Z" fill="white"/>
<path d="M20.645 37.0296H14.7786V42.8731H20.645V37.0296Z" fill="white"/>
<path d="M20.645 19.7155H14.7786V25.559H20.645V19.7155Z" fill="white"/>
<rect x="2.66275" y="3.35303" width="46.8201" height="46.6176" stroke="white" stroke-width="5"/>
</svg>
