<svg width="52" height="55" viewBox="0 0 52 55" fill="none" xmlns="http://www.w3.org/2000/svg">
<path d="M22.3491 40.7216H17V46.3829H22.3491V40.7216Z" fill="white"/>
<path d="M27.5 46.3829H22.1509V52.0442H27.5V46.3829Z" fill="white"/>
<path d="M32.8491 46.3829H27.5V52.0442H32.8491V46.3829Z" fill="white"/>
<path d="M38 40.7216H32.6509V46.3829H38V40.7216Z" fill="white"/>
<path d="M38 18.4958H32.6509V24.1571H38V18.4958Z" fill="white"/>
<path d="M32.8491 35.27H27.5V40.9313H32.8491V35.27Z" fill="white"/>
<path d="M32.8491 24.1571H27.5V29.8184H32.8491V24.1571Z" fill="white"/>
<path d="M32.8491 13.0442H27.5V18.7055H32.8491V13.0442Z" fill="white"/>
<path d="M27.5 29.6087H22.1509V35.27H27.5V29.6087Z" fill="white"/>
<path d="M27.5 13.0442H22.1509V18.7055H27.5V13.0442Z" fill="white"/>
<path d="M22.3491 18.4958H17V24.1571H22.3491V18.4958Z" fill="white"/>
<rect x="2.66269" y="2.5" width="46.8201" height="49.4853" stroke="white" stroke-width="5"/>
</svg>
