<svg width="257" height="287" viewBox="0 0 257 287" fill="none" xmlns="http://www.w3.org/2000/svg">
<path d="M209.787 89.6932L198.574 93.6257L202.497 104.83L213.71 100.897L209.787 89.6932Z" fill="#0000F9"/>
<path d="M198.726 93.5291L187.513 97.4616L191.436 108.666L202.65 104.733L198.726 93.5291Z" fill="#0000F9"/>
<path d="M230.053 220.164L218.84 224.096L222.763 235.3L233.977 231.368L230.053 220.164Z" fill="#0000F9"/>
<path d="M226.155 208.925L214.942 212.857L218.865 224.061L230.079 220.129L226.155 208.925Z" fill="#0000F9"/>
<path d="M222.319 197.864L211.106 201.796L215.03 213.001L226.243 209.068L222.319 197.864Z" fill="#0000F9"/>
<path d="M218.422 186.625L207.208 190.557L211.132 201.762L222.345 197.829L218.422 186.625Z" fill="#0000F9"/>
<path d="M191.323 108.487L180.11 112.42L184.033 123.624L195.247 119.692L191.323 108.487Z" fill="#0000F9"/>
<path d="M207.183 190.523L195.969 194.455L199.893 205.66L211.106 201.727L207.183 190.523Z" fill="#0000F9"/>
<path d="M203.347 179.462L192.133 183.395L196.057 194.599L207.27 190.666L203.347 179.462Z" fill="#0000F9"/>
<path d="M180.084 112.385L168.871 116.318L172.794 127.522L184.007 123.589L180.084 112.385Z" fill="#0000F9"/>
<path d="M188.389 172.059L177.175 175.992L181.099 187.196L192.312 183.263L188.389 172.059Z" fill="#0000F9"/>
<path d="M172.921 127.46L161.708 131.392L165.631 142.597L176.845 138.664L172.921 127.46Z" fill="#0000F9"/>
<path d="M149.72 60.5614L138.507 64.4939L142.43 75.6981L153.644 71.7655L149.72 60.5614Z" fill="#0000F9"/>
<path d="M145.823 49.3224L134.61 53.2549L138.533 64.4592L149.746 60.5266L145.823 49.3224Z" fill="#0000F9"/>
<path d="M141.987 38.2619L130.774 42.1944L134.697 53.3986L145.91 49.466L141.987 38.2619Z" fill="#0000F9"/>
<path d="M177.15 175.957L165.936 179.889L169.86 191.094L181.073 187.161L177.15 175.957Z" fill="#0000F9"/>
<path d="M173.252 164.718L162.039 168.65L165.962 179.855L177.175 175.922L173.252 164.718Z" fill="#0000F9"/>
<path d="M169.416 153.657L158.203 157.59L162.126 168.794L173.339 164.861L169.416 153.657Z" fill="#0000F9"/>
<path d="M165.518 142.418L154.305 146.351L158.228 157.555L169.441 153.622L165.518 142.418Z" fill="#0000F9"/>
<path d="M161.682 131.358L150.469 135.29L154.392 146.494L165.606 142.562L161.682 131.358Z" fill="#0000F9"/>
<path d="M157.784 120.119L146.571 124.051L150.494 135.256L161.708 131.323L157.784 120.119Z" fill="#0000F9"/>
<path d="M153.949 109.058L142.735 112.991L146.659 124.195L157.872 120.262L153.949 109.058Z" fill="#0000F9"/>
<path d="M142.317 75.5197L131.104 79.4523L135.027 90.6564L146.241 86.7239L142.317 75.5197Z" fill="#0000F9"/>
<path d="M138.481 64.4591L127.268 68.3916L131.191 79.5958L142.405 75.6632L138.481 64.4591Z" fill="#0000F9"/>
<path d="M134.584 53.2202L123.37 57.1527L127.294 68.3569L138.507 64.4243L134.584 53.2202Z" fill="#0000F9"/>
<path d="M130.748 42.1595L119.534 46.092L123.458 57.2962L134.671 53.3637L130.748 42.1595Z" fill="#0000F9"/>
<path d="M126.85 30.9206L115.637 34.8531L119.56 46.0573L130.773 42.1248L126.85 30.9206Z" fill="#0000F9"/>
<path d="M166.089 179.793L154.876 183.725L158.799 194.929L170.012 190.997L166.089 179.793Z" fill="#0000F9"/>
<path d="M162.191 168.554L150.978 172.486L154.901 183.69L166.115 179.758L162.191 168.554Z" fill="#0000F9"/>
<path d="M158.355 157.493L147.142 161.426L151.065 172.63L162.279 168.697L158.355 157.493Z" fill="#0000F9"/>
<path d="M154.458 146.254L143.244 150.187L147.168 161.391L158.381 157.458L154.458 146.254Z" fill="#0000F9"/>
<path d="M150.622 135.194L139.409 139.126L143.332 150.33L154.545 146.398L150.622 135.194Z" fill="#0000F9"/>
<path d="M146.724 123.955L135.51 127.887L139.434 139.091L150.647 135.159L146.724 123.955Z" fill="#0000F9"/>
<path d="M142.888 112.894L131.675 116.827L135.598 128.031L146.812 124.098L142.888 112.894Z" fill="#0000F9"/>
<path d="M135.154 90.5946L123.941 94.5271L127.864 105.731L139.078 101.799L135.154 90.5946Z" fill="#0000F9"/>
<path d="M131.257 79.3555L120.043 83.2881L123.967 94.4923L135.18 90.5597L131.257 79.3555Z" fill="#0000F9"/>
<path d="M127.421 68.2949L116.207 72.2275L120.131 83.4317L131.344 79.4991L127.421 68.2949Z" fill="#0000F9"/>
<path d="M123.523 57.0559L112.31 60.9885L116.233 72.1926L127.447 68.2601L123.523 57.0559Z" fill="#0000F9"/>
<path d="M119.687 45.9954L108.474 49.928L112.397 61.1322L123.611 57.1996L119.687 45.9954Z" fill="#0000F9"/>
<path d="M115.79 34.7564L104.576 38.6889L108.5 49.8931L119.713 45.9605L115.79 34.7564Z" fill="#0000F9"/>
<path d="M111.954 23.6959L100.74 27.6284L104.664 38.8326L115.877 34.9001L111.954 23.6959Z" fill="#0000F9"/>
<path d="M154.85 183.691L143.636 187.623L147.56 198.827L158.773 194.895L154.85 183.691Z" fill="#0000F9"/>
<path d="M150.952 172.451L139.739 176.384L143.662 187.588L154.876 183.656L150.952 172.451Z" fill="#0000F9"/>
<path d="M147.116 161.391L135.903 165.323L139.826 176.528L151.04 172.595L147.116 161.391Z" fill="#0000F9"/>
<path d="M143.219 150.152L132.005 154.085L135.929 165.289L147.142 161.356L143.219 150.152Z" fill="#0000F9"/>
<path d="M139.383 139.091L128.169 143.024L132.093 154.228L143.306 150.296L139.383 139.091Z" fill="#0000F9"/>
<path d="M135.485 127.852L124.272 131.785L128.195 142.989L139.408 139.057L135.485 127.852Z" fill="#0000F9"/>
<path d="M131.649 116.792L120.436 120.724L124.359 131.929L135.573 127.996L131.649 116.792Z" fill="#0000F9"/>
<path d="M127.751 105.553L116.538 109.485L120.461 120.69L131.675 116.757L127.751 105.553Z" fill="#0000F9"/>
<path d="M123.915 94.4923L112.702 98.4248L116.625 109.629L127.839 105.696L123.915 94.4923Z" fill="#0000F9"/>
<path d="M120.018 83.2533L108.804 87.1858L112.728 98.39L123.941 94.4574L120.018 83.2533Z" fill="#0000F9"/>
<path d="M116.182 72.1927L104.969 76.1252L108.892 87.3294L120.105 83.3969L116.182 72.1927Z" fill="#0000F9"/>
<path d="M112.284 60.9538L101.071 64.8863L104.994 76.0905L116.208 72.1579L112.284 60.9538Z" fill="#0000F9"/>
<path d="M108.448 49.8931L97.2349 53.8257L101.158 65.0299L112.372 61.0973L108.448 49.8931Z" fill="#0000F9"/>
<path d="M104.55 38.6542L93.3372 42.5867L97.2605 53.791L108.474 49.8584L104.55 38.6542Z" fill="#0000F9"/>
<path d="M100.715 27.5936L89.5013 31.5262L93.4247 42.7304L104.638 38.7978L100.715 27.5936Z" fill="#0000F9"/>
<path d="M151.523 209.826L140.31 213.758L144.233 224.963L155.446 221.03L151.523 209.826Z" fill="#0000F9"/>
<path d="M147.687 198.765L136.474 202.698L140.397 213.902L151.611 209.97L147.687 198.765Z" fill="#0000F9"/>
<path d="M143.789 187.526L132.576 191.459L136.499 202.663L147.713 198.731L143.789 187.526Z" fill="#0000F9"/>
<path d="M139.892 176.287L128.678 180.22L132.602 191.424L143.815 187.492L139.892 176.287Z" fill="#0000F9"/>
<path d="M136.056 165.227L124.842 169.159L128.766 180.363L139.979 176.431L136.056 165.227Z" fill="#0000F9"/>
<path d="M132.158 153.988L120.945 157.92L124.868 169.125L136.082 165.192L132.158 153.988Z" fill="#0000F9"/>
<path d="M128.322 142.927L117.109 146.86L121.032 158.064L132.246 154.131L128.322 142.927Z" fill="#0000F9"/>
<path d="M124.425 131.688L113.211 135.621L117.135 146.825L128.348 142.892L124.425 131.688Z" fill="#0000F9"/>
<path d="M120.589 120.628L109.375 124.56L113.299 135.764L124.512 131.832L120.589 120.628Z" fill="#0000F9"/>
<path d="M112.855 98.3282L101.642 102.261L105.565 113.465L116.779 109.532L112.855 98.3282Z" fill="#0000F9"/>
<path d="M108.957 87.0891L97.7438 91.0217L101.667 102.226L112.88 98.2933L108.957 87.0891Z" fill="#0000F9"/>
<path d="M105.122 76.0286L93.9082 79.9612L97.8316 91.1654L109.045 87.2328L105.122 76.0286Z" fill="#0000F9"/>
<path d="M101.223 64.7896L90.0102 68.7222L93.9336 79.9264L105.147 75.9938L101.223 64.7896Z" fill="#0000F9"/>
<path d="M97.3877 53.729L86.1743 57.6616L90.0977 68.8657L101.311 64.9332L97.3877 53.729Z" fill="#0000F9"/>
<path d="M93.4899 42.4901L82.2766 46.4227L86.1999 57.6269L97.4133 53.6943L93.4899 42.4901Z" fill="#0000F9"/>
<path d="M89.6541 31.4295L78.4407 35.3621L82.3641 46.5662L93.5775 42.6337L89.6541 31.4295Z" fill="#0000F9"/>
<path d="M148.018 236.023L136.804 239.956L140.728 251.16L151.941 247.227L148.018 236.023Z" fill="#0000F9"/>
<path d="M144.182 224.963L132.968 228.895L136.892 240.099L148.105 236.167L144.182 224.963Z" fill="#0000F9"/>
<path d="M140.284 213.724L129.071 217.656L132.994 228.86L144.207 224.928L140.284 213.724Z" fill="#0000F9"/>
<path d="M132.55 191.424L121.337 195.357L125.261 206.561L136.474 202.628L132.55 191.424Z" fill="#0000F9"/>
<path d="M128.653 180.185L117.439 184.118L121.363 195.322L132.576 191.389L128.653 180.185Z" fill="#0000F9"/>
<path d="M124.817 169.125L113.603 173.057L117.527 184.261L128.74 180.329L124.817 169.125Z" fill="#0000F9"/>
<path d="M120.919 157.886L109.706 161.818L113.629 173.022L124.843 169.09L120.919 157.886Z" fill="#0000F9"/>
<path d="M117.083 146.825L105.87 150.758L109.793 161.962L121.006 158.029L117.083 146.825Z" fill="#0000F9"/>
<path d="M113.186 135.586L101.972 139.519L105.896 150.723L117.109 146.79L113.186 135.586Z" fill="#0000F9"/>
<path d="M109.349 124.525L98.1361 128.458L102.059 139.662L113.273 135.73L109.349 124.525Z" fill="#0000F9"/>
<path d="M97.7182 90.987L86.5048 94.9195L90.4282 106.124L101.642 102.191L97.7182 90.987Z" fill="#0000F9"/>
<path d="M93.8826 79.9264L82.6693 83.8589L86.5926 95.0631L97.806 91.1306L93.8826 79.9264Z" fill="#0000F9"/>
<path d="M89.9846 68.6874L78.7712 72.6199L82.6946 83.8241L93.908 79.8916L89.9846 68.6874Z" fill="#0000F9"/>
<path d="M86.1487 57.6268L74.9354 61.5593L78.8587 72.7635L90.0721 68.831L86.1487 57.6268Z" fill="#0000F9"/>
<path d="M82.2509 46.3878L71.0376 50.3204L74.961 61.5245L86.1743 57.592L82.2509 46.3878Z" fill="#0000F9"/>
<path d="M117.592 184.021L106.379 187.953L110.302 199.158L121.515 195.225L117.592 184.021Z" fill="#0000F9"/>
<path d="M113.756 172.96L102.543 176.893L106.466 188.097L117.68 184.165L113.756 172.96Z" fill="#0000F9"/>
<path d="M109.859 161.721L98.6453 165.654L102.569 176.858L113.782 172.926L109.859 161.721Z" fill="#0000F9"/>
<path d="M106.023 150.661L94.8094 154.593L98.7328 165.798L109.946 161.865L106.023 150.661Z" fill="#0000F9"/>
<path d="M102.125 139.422L90.9117 143.354L94.8351 154.559L106.048 150.626L102.125 139.422Z" fill="#0000F9"/>
<path d="M98.2889 128.361L87.0756 132.294L90.9989 143.498L102.212 139.566L98.2889 128.361Z" fill="#0000F9"/>
<path d="M82.822 83.7623L71.6087 87.6948L75.5321 98.899L86.7454 94.9665L82.822 83.7623Z" fill="#0000F9"/>
<path d="M78.924 72.5232L67.7107 76.4557L71.6341 87.6599L82.8474 83.7274L78.924 72.5232Z" fill="#0000F9"/>
<path d="M75.0885 61.4626L63.8751 65.3951L67.7985 76.5993L79.0118 72.6668L75.0885 61.4626Z" fill="#0000F9"/>
<path d="M90.8858 143.32L79.6725 147.252L83.5959 158.456L94.8092 154.524L90.8858 143.32Z" fill="#0000F9"/>
<path d="M79.8252 147.155L68.6119 151.088L72.5353 162.292L83.7486 158.36L79.8252 147.155Z" fill="#0000F9"/>
<path d="M64.7506 139.993L53.5373 143.925L57.4607 155.129L68.674 151.197L64.7506 139.993Z" fill="#0000F9"/>
<path d="M53.6901 143.829L42.4767 147.761L46.4001 158.965L57.6135 155.033L53.6901 143.829Z" fill="#0000F9"/>
<path d="M38.5531 136.487L27.3398 140.42L31.2632 151.624L42.4765 147.692L38.5531 136.487Z" fill="#0000F9"/>
<path d="M34.7175 125.427L23.5042 129.359L27.4276 140.563L38.6409 136.631L34.7175 125.427Z" fill="#0000F9"/>
</svg>
